<?xml version="1.0" encoding="UTF-8" standalone="no"?>
<!DOCTYPE svg PUBLIC "-//W3C//DTD SVG 1.1//EN"
 "http://www.w3.org/Graphics/SVG/1.1/DTD/svg11.dtd">
<!-- Generated by graphviz version 2.43.0 (0)
 -->
<!-- Title: G Pages: 1 -->
<svg width="998pt" height="519pt"
 viewBox="0.00 0.00 998.00 519.00" xmlns="http://www.w3.org/2000/svg" xmlns:xlink="http://www.w3.org/1999/xlink">
<g id="graph0" class="graph" transform="scale(1 1) rotate(0) translate(4 515)">
<title>G</title>
<polygon fill="white" stroke="transparent" points="-4,4 -4,-515 994,-515 994,4 -4,4"/>
<!-- ssd_ehcp_requests -->
<g id="node1" class="node">
<title>ssd_ehcp_requests</title>
<polygon fill="none" stroke="black" points="324.5,-88.5 324.5,-194.5 662.5,-194.5 662.5,-88.5 324.5,-88.5"/>
<text text-anchor="middle" x="493.5" y="-179.3" font-family="Times,serif" font-size="14.00">ssd_ehcp_requests</text>
<polyline fill="none" stroke="black" points="324.5,-171.5 662.5,-171.5 "/>
<text text-anchor="start" x="332.5" y="-156.3" font-family="Times,serif" font-size="14.00">ehcr_ehcp_request_id PK</text>
<text text-anchor="start" x="332.5" y="-141.3" font-family="Times,serif" font-size="14.00">ehcr_send_table_id → ssd_send.send_table_id</text>
<text text-anchor="start" x="332.5" y="-126.3" font-family="Times,serif" font-size="14.00">ehcr_ehcp_req_date</text>
<text text-anchor="start" x="332.5" y="-111.3" font-family="Times,serif" font-size="14.00">ehcr_ehcp_req_outcome_date</text>
<text text-anchor="start" x="332.5" y="-96.3" font-family="Times,serif" font-size="14.00">ehcr_ehcp_req_outcome</text>
</g>
<!-- ssd_send -->
<g id="node6" class="node">
<title>ssd_send</title>
<polygon fill="none" stroke="black" points="453,-0.5 453,-36.5 534,-36.5 534,-0.5 453,-0.5"/>
<text text-anchor="middle" x="493.5" y="-14.8" font-family="Times,serif" font-size="14.00">ssd_send</text>
</g>
<!-- ssd_ehcp_requests&#45;&gt;ssd_send -->
<g id="edge1" class="edge">
<title>ssd_ehcp_requests&#45;&gt;ssd_send</title>
<path fill="none" stroke="black" d="M493.5,-88.48C493.5,-74.12 493.5,-59.1 493.5,-46.76"/>
<polygon fill="black" stroke="black" points="497,-46.68 493.5,-36.68 490,-46.68 497,-46.68"/>
<text text-anchor="middle" x="561.5" y="-58.8" font-family="Times,serif" font-size="14.00">ehcr_send_table_id</text>
</g>
<!-- ssd_ehcp_assessment -->
<g id="node2" class="node">
<title>ssd_ehcp_assessment</title>
<polygon fill="none" stroke="black" points="0,-246.5 0,-352.5 485,-352.5 485,-246.5 0,-246.5"/>
<text text-anchor="middle" x="242.5" y="-337.3" font-family="Times,serif" font-size="14.00">ssd_ehcp_assessment</text>
<polyline fill="none" stroke="black" points="0,-329.5 485,-329.5 "/>
<text text-anchor="start" x="8" y="-314.3" font-family="Times,serif" font-size="14.00">ehca_ehcp_assessment_id PK</text>
<text text-anchor="start" x="8" y="-299.3" font-family="Times,serif" font-size="14.00">ehca_ehcp_request_id → ssd_ehcp_requests.ehcr_ehcp_request_id</text>
<text text-anchor="start" x="8" y="-284.3" font-family="Times,serif" font-size="14.00">ehca_ehcp_assessment_outcome_date</text>
<text text-anchor="start" x="8" y="-269.3" font-family="Times,serif" font-size="14.00">ehca_ehcp_assessment_outcome</text>
<text text-anchor="start" x="8" y="-254.3" font-family="Times,serif" font-size="14.00">ehca_ehcp_assessment_exceptions</text>
</g>
<!-- ssd_ehcp_assessment&#45;&gt;ssd_ehcp_requests -->
<g id="edge2" class="edge">
<title>ssd_ehcp_assessment&#45;&gt;ssd_ehcp_requests</title>
<path fill="none" stroke="black" d="M326.43,-246.34C350.4,-231.44 376.64,-215.13 401.09,-199.94"/>
<polygon fill="black" stroke="black" points="403.01,-202.86 409.65,-194.61 399.31,-196.92 403.01,-202.86"/>
<text text-anchor="middle" x="454.5" y="-216.8" font-family="Times,serif" font-size="14.00">ehca_ehcp_request_id</text>
</g>
<!-- ssd_sen_need -->
<g id="node3" class="node">
<title>ssd_sen_need</title>
<polygon fill="none" stroke="black" points="501,-412 501,-503 990,-503 990,-412 501,-412"/>
<text text-anchor="middle" x="745.5" y="-487.8" font-family="Times,serif" font-size="14.00">ssd_sen_need</text>
<polyline fill="none" stroke="black" points="501,-480 990,-480 "/>
<text text-anchor="start" x="509" y="-464.8" font-family="Times,serif" font-size="14.00">senn_table_id PK</text>
<text text-anchor="start" x="509" y="-449.8" font-family="Times,serif" font-size="14.00">senn_active_ehcp_id → ssd_ehcp_active_plans.ehcp_active_ehcp_id</text>
<text text-anchor="start" x="509" y="-434.8" font-family="Times,serif" font-size="14.00">senn_active_ehcp_need_type</text>
<text text-anchor="start" x="509" y="-419.8" font-family="Times,serif" font-size="14.00">senn_active_ehcp_need_rank</text>
</g>
<!-- ssd_ehcp_active_plans -->
<g id="node5" class="node">
<title>ssd_ehcp_active_plans</title>
<polygon fill="none" stroke="black" points="503,-261.5 503,-337.5 988,-337.5 988,-261.5 503,-261.5"/>
<text text-anchor="middle" x="745.5" y="-322.3" font-family="Times,serif" font-size="14.00">ssd_ehcp_active_plans</text>
<polyline fill="none" stroke="black" points="503,-314.5 988,-314.5 "/>
<text text-anchor="start" x="511" y="-299.3" font-family="Times,serif" font-size="14.00">ehcp_active_ehcp_id PK</text>
<text text-anchor="start" x="511" y="-284.3" font-family="Times,serif" font-size="14.00">ehcp_ehcp_request_id → ssd_ehcp_requests.ehcr_ehcp_request_id</text>
<text text-anchor="start" x="511" y="-269.3" font-family="Times,serif" font-size="14.00">ehcp_active_ehcp_last_review_date</text>
</g>
<!-- ssd_sen_need&#45;&gt;ssd_ehcp_active_plans -->
<g id="edge3" class="edge">
<title>ssd_sen_need&#45;&gt;ssd_ehcp_active_plans</title>
<path fill="none" stroke="black" d="M745.5,-411.8C745.5,-391.69 745.5,-367.96 745.5,-347.58"/>
<polygon fill="black" stroke="black" points="749,-347.58 745.5,-337.58 742,-347.58 749,-347.58"/>
<text text-anchor="middle" x="818" y="-374.8" font-family="Times,serif" font-size="14.00">senn_active_ehcp_id</text>
</g>
<!-- ssd_ehcp_named_plan -->
<g id="node4" class="node">
<title>ssd_ehcp_named_plan</title>
<polygon fill="none" stroke="black" points="8,-404.5 8,-510.5 477,-510.5 477,-404.5 8,-404.5"/>
<text text-anchor="middle" x="242.5" y="-495.3" font-family="Times,serif" font-size="14.00">ssd_ehcp_named_plan</text>
<polyline fill="none" stroke="black" points="8,-487.5 477,-487.5 "/>
<text text-anchor="start" x="16" y="-472.3" font-family="Times,serif" font-size="14.00">ehcn_named_plan_id PK</text>
<text text-anchor="start" x="16" y="-457.3" font-family="Times,serif" font-size="14.00">ehcn_ehcp_asmt_id → ssd_ehcp_assessment.ehca_ehcp_asmt_id</text>
<text text-anchor="start" x="16" y="-442.3" font-family="Times,serif" font-size="14.00">ehcn_named_plan_start_date</text>
<text text-anchor="start" x="16" y="-427.3" font-family="Times,serif" font-size="14.00">ehcn_named_plan_ceased_date</text>
<text text-anchor="start" x="16" y="-412.3" font-family="Times,serif" font-size="14.00">ehcn_named_plan_ceased_reason</text>
</g>
<!-- ssd_ehcp_named_plan&#45;&gt;ssd_ehcp_assessment -->
<g id="edge4" class="edge">
<title>ssd_ehcp_named_plan&#45;&gt;ssd_ehcp_assessment</title>
<path fill="none" stroke="black" d="M242.5,-404.12C242.5,-390.93 242.5,-376.64 242.5,-363.01"/>
<polygon fill="black" stroke="black" points="246,-362.74 242.5,-352.74 239,-362.74 246,-362.74"/>
<text text-anchor="middle" x="311" y="-374.8" font-family="Times,serif" font-size="14.00">ehcn_ehcp_asmt_id</text>
</g>
<!-- ssd_ehcp_active_plans&#45;&gt;ssd_ehcp_requests -->
<g id="edge5" class="edge">
<title>ssd_ehcp_active_plans&#45;&gt;ssd_ehcp_requests</title>
<path fill="none" stroke="black" d="M685.46,-261.33C655.93,-243.05 619.66,-220.6 586.63,-200.15"/>
<polygon fill="black" stroke="black" points="588.21,-197.01 577.86,-194.72 584.52,-202.96 588.21,-197.01"/>
<text text-anchor="middle" x="706" y="-216.8" font-family="Times,serif" font-size="14.00">ehcp_ehcp_request_id</text>
</g>
</g>
</svg>
