<?xml version="1.0" encoding="UTF-8" standalone="no"?>
<!DOCTYPE svg PUBLIC "-//W3C//DTD SVG 1.1//EN"
 "http://www.w3.org/Graphics/SVG/1.1/DTD/svg11.dtd">
<!-- Generated by graphviz version 2.43.0 (0)
 -->
<!-- Title: G Pages: 1 -->
<svg width="840pt" height="248pt"
 viewBox="0.00 0.00 839.50 248.00" xmlns="http://www.w3.org/2000/svg" xmlns:xlink="http://www.w3.org/1999/xlink">
<g id="graph0" class="graph" transform="scale(1 1) rotate(0) translate(4 244)">
<title>G</title>
<polygon fill="white" stroke="transparent" points="-4,4 -4,-244 835.5,-244 835.5,4 -4,4"/>
<!-- ssd_family -->
<g id="node1" class="node">
<title>ssd_family</title>
<polygon fill="none" stroke="black" points="0,-126 0,-202 336,-202 336,-126 0,-126"/>
<text text-anchor="middle" x="168" y="-186.8" font-family="Times,serif" font-size="14.00">ssd_family</text>
<polyline fill="none" stroke="black" points="0,-179 336,-179 "/>
<text text-anchor="start" x="8" y="-163.8" font-family="Times,serif" font-size="14.00">fami_table_id</text>
<text text-anchor="start" x="8" y="-148.8" font-family="Times,serif" font-size="14.00">fami_family_id PK</text>
<text text-anchor="start" x="8" y="-133.8" font-family="Times,serif" font-size="14.00">fami_person_id → ssd_person.pers_person_id</text>
</g>
<!-- ssd_person -->
<g id="node3" class="node">
<title>ssd_person</title>
<polygon fill="none" stroke="black" points="264,-0.5 264,-36.5 360,-36.5 360,-0.5 264,-0.5"/>
<text text-anchor="middle" x="312" y="-14.8" font-family="Times,serif" font-size="14.00">ssd_person</text>
</g>
<!-- ssd_family&#45;&gt;ssd_person -->
<g id="edge1" class="edge">
<title>ssd_family&#45;&gt;ssd_person</title>
<path fill="none" stroke="black" d="M205.46,-125.67C231.36,-99.86 265.09,-66.25 287.58,-43.83"/>
<polygon fill="black" stroke="black" points="290.14,-46.22 294.76,-36.68 285.2,-41.26 290.14,-46.22"/>
<text text-anchor="middle" x="328" y="-58.8" font-family="Times,serif" font-size="14.00">fami_person_id</text>
</g>
<!-- ssd_early_help_episodes -->
<g id="node2" class="node">
<title>ssd_early_help_episodes</title>
<polygon fill="none" stroke="black" points="354.5,-88.5 354.5,-239.5 831.5,-239.5 831.5,-88.5 354.5,-88.5"/>
<text text-anchor="middle" x="593" y="-224.3" font-family="Times,serif" font-size="14.00">ssd_early_help_episodes</text>
<polyline fill="none" stroke="black" points="354.5,-216.5 831.5,-216.5 "/>
<text text-anchor="start" x="362.5" y="-201.3" font-family="Times,serif" font-size="14.00">earl_episode_id PK</text>
<text text-anchor="start" x="362.5" y="-186.3" font-family="Times,serif" font-size="14.00">earl_person_id → ssd_person.pers_person_id</text>
<text text-anchor="start" x="362.5" y="-171.3" font-family="Times,serif" font-size="14.00">earl_episode_start_date</text>
<text text-anchor="start" x="362.5" y="-156.3" font-family="Times,serif" font-size="14.00">earl_episode_end_date</text>
<text text-anchor="start" x="362.5" y="-141.3" font-family="Times,serif" font-size="14.00">earl_episode_reason</text>
<text text-anchor="start" x="362.5" y="-126.3" font-family="Times,serif" font-size="14.00">earl_episode_end_reason</text>
<text text-anchor="start" x="362.5" y="-111.3" font-family="Times,serif" font-size="14.00">earl_episode_organisation</text>
<text text-anchor="start" x="362.5" y="-96.3" font-family="Times,serif" font-size="14.00">earl_episode_worker_id → ssd_professionals.prof_professional_id</text>
</g>
<!-- ssd_early_help_episodes&#45;&gt;ssd_person -->
<g id="edge2" class="edge">
<title>ssd_early_help_episodes&#45;&gt;ssd_person</title>
<path fill="none" stroke="black" d="M451.63,-88.44C429.72,-77.11 407.3,-65.66 386,-55 376.83,-50.41 366.96,-45.59 357.51,-41.04"/>
<polygon fill="black" stroke="black" points="358.78,-37.76 348.25,-36.59 355.75,-44.07 358.78,-37.76"/>
<text text-anchor="middle" x="467" y="-58.8" font-family="Times,serif" font-size="14.00">earl_person_id</text>
</g>
<!-- ssd_professionals -->
<g id="node4" class="node">
<title>ssd_professionals</title>
<polygon fill="none" stroke="black" points="522,-0.5 522,-36.5 664,-36.5 664,-0.5 522,-0.5"/>
<text text-anchor="middle" x="593" y="-14.8" font-family="Times,serif" font-size="14.00">ssd_professionals</text>
</g>
<!-- ssd_early_help_episodes&#45;&gt;ssd_professionals -->
<g id="edge3" class="edge">
<title>ssd_early_help_episodes&#45;&gt;ssd_professionals</title>
<path fill="none" stroke="black" d="M593,-88.31C593,-73.5 593,-58.86 593,-46.92"/>
<polygon fill="black" stroke="black" points="596.5,-46.78 593,-36.78 589.5,-46.78 596.5,-46.78"/>
<text text-anchor="middle" x="676.5" y="-58.8" font-family="Times,serif" font-size="14.00">earl_episode_worker_id</text>
</g>
</g>
</svg>
