<?xml version="1.0" encoding="UTF-8" standalone="no"?>
<!DOCTYPE svg PUBLIC "-//W3C//DTD SVG 1.1//EN"
 "http://www.w3.org/Graphics/SVG/1.1/DTD/svg11.dtd">
<!-- Generated by graphviz version 2.43.0 (0)
 -->
<!-- Title: G Pages: 1 -->
<svg width="4278pt" height="736pt"
 viewBox="0.00 0.00 4278.00 736.00" xmlns="http://www.w3.org/2000/svg" xmlns:xlink="http://www.w3.org/1999/xlink">
<g id="graph0" class="graph" transform="scale(1 1) rotate(0) translate(4 732)">
<title>G</title>
<polygon fill="white" stroke="transparent" points="-4,4 -4,-732 4274,-732 4274,4 -4,4"/>
<!-- ssd_permanence -->
<g id="node1" class="node">
<title>ssd_permanence</title>
<polygon fill="none" stroke="black" points="0,-351.5 0,-727.5 494,-727.5 494,-351.5 0,-351.5"/>
<text text-anchor="middle" x="247" y="-712.3" font-family="Times,serif" font-size="14.00">ssd_permanence</text>
<polyline fill="none" stroke="black" points="0,-704.5 494,-704.5 "/>
<text text-anchor="start" x="8" y="-689.3" font-family="Times,serif" font-size="14.00">perm_table_id PK</text>
<text text-anchor="start" x="8" y="-674.3" font-family="Times,serif" font-size="14.00">perm_person_id → ssd_cla_episodes.clae_cla_episode_id</text>
<text text-anchor="start" x="8" y="-659.3" font-family="Times,serif" font-size="14.00">perm_cla_id</text>
<text text-anchor="start" x="8" y="-644.3" font-family="Times,serif" font-size="14.00">perm_adm_decision_date</text>
<text text-anchor="start" x="8" y="-629.3" font-family="Times,serif" font-size="14.00">perm_ffa_cp_decision_date</text>
<text text-anchor="start" x="8" y="-614.3" font-family="Times,serif" font-size="14.00">perm_placement_order_date</text>
<text text-anchor="start" x="8" y="-599.3" font-family="Times,serif" font-size="14.00">perm_placed_for_adoption_date</text>
<text text-anchor="start" x="8" y="-584.3" font-family="Times,serif" font-size="14.00">perm_matched_date</text>
<text text-anchor="start" x="8" y="-569.3" font-family="Times,serif" font-size="14.00">perm_adopted_by_carer_flag</text>
<text text-anchor="start" x="8" y="-554.3" font-family="Times,serif" font-size="14.00">perm_placed_ffa_cp_date</text>
<text text-anchor="start" x="8" y="-539.3" font-family="Times,serif" font-size="14.00">perm_decision_reversed_date</text>
<text text-anchor="start" x="8" y="-524.3" font-family="Times,serif" font-size="14.00">perm_placed_foster_carer_date</text>
<text text-anchor="start" x="8" y="-509.3" font-family="Times,serif" font-size="14.00">perm_part_of_sibling_group</text>
<text text-anchor="start" x="8" y="-494.3" font-family="Times,serif" font-size="14.00">perm_siblings_placed_together</text>
<text text-anchor="start" x="8" y="-479.3" font-family="Times,serif" font-size="14.00">perm_siblings_placed_apart</text>
<text text-anchor="start" x="8" y="-464.3" font-family="Times,serif" font-size="14.00">perm_placement_provider_urn</text>
<text text-anchor="start" x="8" y="-449.3" font-family="Times,serif" font-size="14.00">perm_decision_reversed_reason</text>
<text text-anchor="start" x="8" y="-434.3" font-family="Times,serif" font-size="14.00">perm_permanence_order_date</text>
<text text-anchor="start" x="8" y="-419.3" font-family="Times,serif" font-size="14.00">perm_permanence_order_type</text>
<text text-anchor="start" x="8" y="-404.3" font-family="Times,serif" font-size="14.00">perm_adoption_worker_id → ssd_professionals.prof_professional_id</text>
<text text-anchor="start" x="8" y="-389.3" font-family="Times,serif" font-size="14.00">perm_adopter_sex</text>
<text text-anchor="start" x="8" y="-374.3" font-family="Times,serif" font-size="14.00">perm_adopter_legal_status</text>
<text text-anchor="start" x="8" y="-359.3" font-family="Times,serif" font-size="14.00">perm_number_of_adopters</text>
</g>
<!-- ssd_cla_episodes -->
<g id="node14" class="node">
<title>ssd_cla_episodes</title>
<polygon fill="none" stroke="black" points="2021.5,-88.5 2021.5,-299.5 2490.5,-299.5 2490.5,-88.5 2021.5,-88.5"/>
<text text-anchor="middle" x="2256" y="-284.3" font-family="Times,serif" font-size="14.00">ssd_cla_episodes</text>
<polyline fill="none" stroke="black" points="2021.5,-276.5 2490.5,-276.5 "/>
<text text-anchor="start" x="2029.5" y="-261.3" font-family="Times,serif" font-size="14.00">clae_cla_episode_id PK</text>
<text text-anchor="start" x="2029.5" y="-246.3" font-family="Times,serif" font-size="14.00">clae_person_id → ssd_person.pers_person_id</text>
<text text-anchor="start" x="2029.5" y="-231.3" font-family="Times,serif" font-size="14.00">clae_cla_episode_start_date</text>
<text text-anchor="start" x="2029.5" y="-216.3" font-family="Times,serif" font-size="14.00">clae_cla_episode_start_reason</text>
<text text-anchor="start" x="2029.5" y="-201.3" font-family="Times,serif" font-size="14.00">clae_cla_primary_need_code</text>
<text text-anchor="start" x="2029.5" y="-186.3" font-family="Times,serif" font-size="14.00">clae_cla_episode_ceased_date</text>
<text text-anchor="start" x="2029.5" y="-171.3" font-family="Times,serif" font-size="14.00">clae_cla_episode_ceased_reason</text>
<text text-anchor="start" x="2029.5" y="-156.3" font-family="Times,serif" font-size="14.00">clae_cla_id</text>
<text text-anchor="start" x="2029.5" y="-141.3" font-family="Times,serif" font-size="14.00">clae_referral_id</text>
<text text-anchor="start" x="2029.5" y="-126.3" font-family="Times,serif" font-size="14.00">clae_cla_placement_id → ssd_cla_placements.clap_placement_id</text>
<text text-anchor="start" x="2029.5" y="-111.3" font-family="Times,serif" font-size="14.00">clae_entered_care_date</text>
<text text-anchor="start" x="2029.5" y="-96.3" font-family="Times,serif" font-size="14.00">clae_cla_last_iro_contact_date</text>
</g>
<!-- ssd_permanence&#45;&gt;ssd_cla_episodes -->
<g id="edge1" class="edge">
<title>ssd_permanence&#45;&gt;ssd_cla_episodes</title>
<path fill="none" stroke="black" d="M494.14,-354.53C497.09,-353.31 500.04,-352.13 503,-351 772.06,-247.95 1596.07,-212.07 2011.35,-200.32"/>
<polygon fill="black" stroke="black" points="2011.49,-203.82 2021.39,-200.04 2011.3,-196.82 2011.49,-203.82"/>
<text text-anchor="middle" x="667" y="-321.8" font-family="Times,serif" font-size="14.00">perm_person_id</text>
</g>
<!-- ssd_professionals -->
<g id="node16" class="node">
<title>ssd_professionals</title>
<polygon fill="none" stroke="black" points="176,-176 176,-212 318,-212 318,-176 176,-176"/>
<text text-anchor="middle" x="247" y="-190.3" font-family="Times,serif" font-size="14.00">ssd_professionals</text>
</g>
<!-- ssd_permanence&#45;&gt;ssd_professionals -->
<g id="edge2" class="edge">
<title>ssd_permanence&#45;&gt;ssd_professionals</title>
<path fill="none" stroke="black" d="M247,-351.42C247,-300.69 247,-251.76 247,-222.52"/>
<polygon fill="black" stroke="black" points="250.5,-222.31 247,-212.31 243.5,-222.31 250.5,-222.31"/>
<text text-anchor="middle" x="339" y="-321.8" font-family="Times,serif" font-size="14.00">perm_adoption_worker_id</text>
</g>
<!-- ssd_cla_previous_permanence -->
<g id="node2" class="node">
<title>ssd_cla_previous_permanence</title>
<polygon fill="none" stroke="black" points="512.5,-486.5 512.5,-592.5 885.5,-592.5 885.5,-486.5 512.5,-486.5"/>
<text text-anchor="middle" x="699" y="-577.3" font-family="Times,serif" font-size="14.00">ssd_cla_previous_permanence</text>
<polyline fill="none" stroke="black" points="512.5,-569.5 885.5,-569.5 "/>
<text text-anchor="start" x="520.5" y="-554.3" font-family="Times,serif" font-size="14.00">lapp_table_id PK</text>
<text text-anchor="start" x="520.5" y="-539.3" font-family="Times,serif" font-size="14.00">lapp_person_id → ssd_cla_episodes.clae_person_id</text>
<text text-anchor="start" x="520.5" y="-524.3" font-family="Times,serif" font-size="14.00">lapp_previous_permanence_order_date</text>
<text text-anchor="start" x="520.5" y="-509.3" font-family="Times,serif" font-size="14.00">lapp_previous_permanence_option</text>
<text text-anchor="start" x="520.5" y="-494.3" font-family="Times,serif" font-size="14.00">lapp_previous_permanence_la</text>
</g>
<!-- ssd_cla_previous_permanence&#45;&gt;ssd_cla_episodes -->
<g id="edge3" class="edge">
<title>ssd_cla_previous_permanence&#45;&gt;ssd_cla_episodes</title>
<path fill="none" stroke="black" d="M737.07,-486.29C772.4,-442.2 829.2,-381.5 894,-351 1086.35,-260.46 1673.52,-220.32 2010.79,-204.32"/>
<polygon fill="black" stroke="black" points="2011.37,-207.8 2021.19,-203.83 2011.04,-200.81 2011.37,-207.8"/>
<text text-anchor="middle" x="1028.5" y="-321.8" font-family="Times,serif" font-size="14.00">lapp_person_id</text>
</g>
<!-- ssd_cla_immunisations -->
<g id="node3" class="node">
<title>ssd_cla_immunisations</title>
<polygon fill="none" stroke="black" points="903.5,-501.5 903.5,-577.5 1270.5,-577.5 1270.5,-501.5 903.5,-501.5"/>
<text text-anchor="middle" x="1087" y="-562.3" font-family="Times,serif" font-size="14.00">ssd_cla_immunisations</text>
<polyline fill="none" stroke="black" points="903.5,-554.5 1270.5,-554.5 "/>
<text text-anchor="start" x="911.5" y="-539.3" font-family="Times,serif" font-size="14.00">clai_person_id → ssd_cla_episodes.clae_person_id</text>
<text text-anchor="start" x="911.5" y="-524.3" font-family="Times,serif" font-size="14.00">clai_immunisations_status</text>
<text text-anchor="start" x="911.5" y="-509.3" font-family="Times,serif" font-size="14.00">clai_immunisations_status_date</text>
</g>
<!-- ssd_cla_immunisations&#45;&gt;ssd_cla_episodes -->
<g id="edge4" class="edge">
<title>ssd_cla_immunisations&#45;&gt;ssd_cla_episodes</title>
<path fill="none" stroke="black" d="M1113.49,-501.28C1146.79,-457.59 1208.24,-386.58 1279,-351 1403.87,-288.21 1764.82,-242.21 2011.22,-217.02"/>
<polygon fill="black" stroke="black" points="2011.81,-220.48 2021.4,-215.99 2011.1,-213.52 2011.81,-220.48"/>
<text text-anchor="middle" x="1405.5" y="-321.8" font-family="Times,serif" font-size="14.00">clai_person_id</text>
</g>
<!-- ssd_sdq_scores -->
<g id="node4" class="node">
<title>ssd_sdq_scores</title>
<polygon fill="none" stroke="black" points="1288.5,-486.5 1288.5,-592.5 1663.5,-592.5 1663.5,-486.5 1288.5,-486.5"/>
<text text-anchor="middle" x="1476" y="-577.3" font-family="Times,serif" font-size="14.00">ssd_sdq_scores</text>
<polyline fill="none" stroke="black" points="1288.5,-569.5 1663.5,-569.5 "/>
<text text-anchor="start" x="1296.5" y="-554.3" font-family="Times,serif" font-size="14.00">csdq_table_id PK</text>
<text text-anchor="start" x="1296.5" y="-539.3" font-family="Times,serif" font-size="14.00">csdq_person_id → ssd_cla_episodes.clae_person_id</text>
<text text-anchor="start" x="1296.5" y="-524.3" font-family="Times,serif" font-size="14.00">csdq_sdq_completed_date</text>
<text text-anchor="start" x="1296.5" y="-509.3" font-family="Times,serif" font-size="14.00">csdq_sdq_reason</text>
<text text-anchor="start" x="1296.5" y="-494.3" font-family="Times,serif" font-size="14.00">csdq_sdq_score</text>
</g>
<!-- ssd_sdq_scores&#45;&gt;ssd_cla_episodes -->
<g id="edge5" class="edge">
<title>ssd_sdq_scores&#45;&gt;ssd_cla_episodes</title>
<path fill="none" stroke="black" d="M1517.31,-486.49C1553.72,-444.04 1610.43,-385.61 1672,-351 1776.01,-292.53 1902.82,-255.23 2011.67,-231.82"/>
<polygon fill="black" stroke="black" points="2012.42,-235.24 2021.47,-229.74 2010.96,-228.39 2012.42,-235.24"/>
<text text-anchor="middle" x="1784.5" y="-321.8" font-family="Times,serif" font-size="14.00">csdq_person_id</text>
</g>
<!-- ssd_cla_health -->
<g id="node5" class="node">
<title>ssd_cla_health</title>
<polygon fill="none" stroke="black" points="1681.5,-486.5 1681.5,-592.5 2052.5,-592.5 2052.5,-486.5 1681.5,-486.5"/>
<text text-anchor="middle" x="1867" y="-577.3" font-family="Times,serif" font-size="14.00">ssd_cla_health</text>
<polyline fill="none" stroke="black" points="1681.5,-569.5 2052.5,-569.5 "/>
<text text-anchor="start" x="1689.5" y="-554.3" font-family="Times,serif" font-size="14.00">clah_health_check_id PK</text>
<text text-anchor="start" x="1689.5" y="-539.3" font-family="Times,serif" font-size="14.00">clah_person_id → ssd_cla_episodes.clae_person_id</text>
<text text-anchor="start" x="1689.5" y="-524.3" font-family="Times,serif" font-size="14.00">clah_health_check_type</text>
<text text-anchor="start" x="1689.5" y="-509.3" font-family="Times,serif" font-size="14.00">clah_health_check_date</text>
<text text-anchor="start" x="1689.5" y="-494.3" font-family="Times,serif" font-size="14.00">clah_health_check_status</text>
</g>
<!-- ssd_cla_health&#45;&gt;ssd_cla_episodes -->
<g id="edge6" class="edge">
<title>ssd_cla_health&#45;&gt;ssd_cla_episodes</title>
<path fill="none" stroke="black" d="M1918.78,-486.28C1957.41,-447.92 2011.93,-395.05 2062,-351 2078.89,-336.14 2096.94,-320.87 2114.97,-305.97"/>
<polygon fill="black" stroke="black" points="2117.2,-308.67 2122.69,-299.61 2112.75,-303.27 2117.2,-308.67"/>
<text text-anchor="middle" x="2151" y="-321.8" font-family="Times,serif" font-size="14.00">clah_person_id</text>
</g>
<!-- ssd_cla_convictions -->
<g id="node6" class="node">
<title>ssd_cla_convictions</title>
<polygon fill="none" stroke="black" points="2071,-494 2071,-585 2441,-585 2441,-494 2071,-494"/>
<text text-anchor="middle" x="2256" y="-569.8" font-family="Times,serif" font-size="14.00">ssd_cla_convictions</text>
<polyline fill="none" stroke="black" points="2071,-562 2441,-562 "/>
<text text-anchor="start" x="2079" y="-546.8" font-family="Times,serif" font-size="14.00">clac_cla_conviction_id PK</text>
<text text-anchor="start" x="2079" y="-531.8" font-family="Times,serif" font-size="14.00">clac_person_id → ssd_cla_episodes.clae_person_id</text>
<text text-anchor="start" x="2079" y="-516.8" font-family="Times,serif" font-size="14.00">clac_cla_conviction_date</text>
<text text-anchor="start" x="2079" y="-501.8" font-family="Times,serif" font-size="14.00">clac_cla_conviction_offence</text>
</g>
<!-- ssd_cla_convictions&#45;&gt;ssd_cla_episodes -->
<g id="edge7" class="edge">
<title>ssd_cla_convictions&#45;&gt;ssd_cla_episodes</title>
<path fill="none" stroke="black" d="M2256,-493.95C2256,-447.51 2256,-372.85 2256,-309.76"/>
<polygon fill="black" stroke="black" points="2259.5,-309.74 2256,-299.74 2252.5,-309.74 2259.5,-309.74"/>
<text text-anchor="middle" x="2308" y="-321.8" font-family="Times,serif" font-size="14.00">clac_person_id</text>
</g>
<!-- ssd_missing -->
<g id="node7" class="node">
<title>ssd_missing</title>
<polygon fill="none" stroke="black" points="2508,-126 2508,-262 2846,-262 2846,-126 2508,-126"/>
<text text-anchor="middle" x="2677" y="-246.8" font-family="Times,serif" font-size="14.00">ssd_missing</text>
<polyline fill="none" stroke="black" points="2508,-239 2846,-239 "/>
<text text-anchor="start" x="2516" y="-223.8" font-family="Times,serif" font-size="14.00">miss_table_id PK</text>
<text text-anchor="start" x="2516" y="-208.8" font-family="Times,serif" font-size="14.00">miss_person_id → ssd_person.pers_person_id</text>
<text text-anchor="start" x="2516" y="-193.8" font-family="Times,serif" font-size="14.00">miss_missing_episode_start_date</text>
<text text-anchor="start" x="2516" y="-178.8" font-family="Times,serif" font-size="14.00">miss_missing_episode_type</text>
<text text-anchor="start" x="2516" y="-163.8" font-family="Times,serif" font-size="14.00">miss_missing_episode_end_date</text>
<text text-anchor="start" x="2516" y="-148.8" font-family="Times,serif" font-size="14.00">miss_missing_rhi_offered</text>
<text text-anchor="start" x="2516" y="-133.8" font-family="Times,serif" font-size="14.00">miss_missing_rhi_accepted</text>
</g>
<!-- ssd_person -->
<g id="node17" class="node">
<title>ssd_person</title>
<polygon fill="none" stroke="black" points="2806,-0.5 2806,-36.5 2902,-36.5 2902,-0.5 2806,-0.5"/>
<text text-anchor="middle" x="2854" y="-14.8" font-family="Times,serif" font-size="14.00">ssd_person</text>
</g>
<!-- ssd_missing&#45;&gt;ssd_person -->
<g id="edge8" class="edge">
<title>ssd_missing&#45;&gt;ssd_person</title>
<path fill="none" stroke="black" d="M2745.43,-125.92C2774.85,-97.09 2807.38,-65.2 2829.09,-43.91"/>
<polygon fill="black" stroke="black" points="2831.61,-46.35 2836.3,-36.85 2826.71,-41.35 2831.61,-46.35"/>
<text text-anchor="middle" x="2869.5" y="-58.8" font-family="Times,serif" font-size="14.00">miss_person_id</text>
</g>
<!-- ssd_legal_status -->
<g id="node8" class="node">
<title>ssd_legal_status</title>
<polygon fill="none" stroke="black" points="2864.5,-141 2864.5,-247 3199.5,-247 3199.5,-141 2864.5,-141"/>
<text text-anchor="middle" x="3032" y="-231.8" font-family="Times,serif" font-size="14.00">ssd_legal_status</text>
<polyline fill="none" stroke="black" points="2864.5,-224 3199.5,-224 "/>
<text text-anchor="start" x="2872.5" y="-208.8" font-family="Times,serif" font-size="14.00">lega_legal_status_id PK</text>
<text text-anchor="start" x="2872.5" y="-193.8" font-family="Times,serif" font-size="14.00">lega_person_id → ssd_person.pers_person_id</text>
<text text-anchor="start" x="2872.5" y="-178.8" font-family="Times,serif" font-size="14.00">lega_legal_status</text>
<text text-anchor="start" x="2872.5" y="-163.8" font-family="Times,serif" font-size="14.00">lega_legal_status_start_date</text>
<text text-anchor="start" x="2872.5" y="-148.8" font-family="Times,serif" font-size="14.00">lega_legal_status_end_date</text>
</g>
<!-- ssd_legal_status&#45;&gt;ssd_person -->
<g id="edge9" class="edge">
<title>ssd_legal_status&#45;&gt;ssd_person</title>
<path fill="none" stroke="black" d="M3001.41,-140.91C2982.9,-112.75 2957.25,-78.95 2928,-55 2921.8,-49.92 2914.75,-45.36 2907.53,-41.34"/>
<polygon fill="black" stroke="black" points="2908.81,-38.06 2898.33,-36.53 2905.57,-44.26 2908.81,-38.06"/>
<text text-anchor="middle" x="2994" y="-58.8" font-family="Times,serif" font-size="14.00">lega_person_id</text>
</g>
<!-- ssd_cla_reviews -->
<g id="node9" class="node">
<title>ssd_cla_reviews</title>
<polygon fill="none" stroke="black" points="2459,-479 2459,-600 2771,-600 2771,-479 2459,-479"/>
<text text-anchor="middle" x="2615" y="-584.8" font-family="Times,serif" font-size="14.00">ssd_cla_reviews</text>
<polyline fill="none" stroke="black" points="2459,-577 2771,-577 "/>
<text text-anchor="start" x="2467" y="-561.8" font-family="Times,serif" font-size="14.00">clar_cla_review_id PK</text>
<text text-anchor="start" x="2467" y="-546.8" font-family="Times,serif" font-size="14.00">clar_cla_id → ssd_cla_episodes.clae_cla_id</text>
<text text-anchor="start" x="2467" y="-531.8" font-family="Times,serif" font-size="14.00">clar_cla_review_due_date</text>
<text text-anchor="start" x="2467" y="-516.8" font-family="Times,serif" font-size="14.00">clar_cla_review_date</text>
<text text-anchor="start" x="2467" y="-501.8" font-family="Times,serif" font-size="14.00">clar_cla_review_cancelled</text>
<text text-anchor="start" x="2467" y="-486.8" font-family="Times,serif" font-size="14.00">clar_cla_review_participation</text>
</g>
<!-- ssd_cla_reviews&#45;&gt;ssd_cla_episodes -->
<g id="edge10" class="edge">
<title>ssd_cla_reviews&#45;&gt;ssd_cla_episodes</title>
<path fill="none" stroke="black" d="M2566.9,-478.7C2535.23,-440.65 2491.99,-391.16 2450,-351 2434.29,-335.97 2417.27,-320.83 2400.05,-306.2"/>
<polygon fill="black" stroke="black" points="2402.03,-303.29 2392.13,-299.51 2397.51,-308.64 2402.03,-303.29"/>
<text text-anchor="middle" x="2467.5" y="-321.8" font-family="Times,serif" font-size="14.00">clar_cla_id</text>
</g>
<!-- ssd_mother -->
<g id="node10" class="node">
<title>ssd_mother</title>
<polygon fill="none" stroke="black" points="3218,-148.5 3218,-239.5 3708,-239.5 3708,-148.5 3218,-148.5"/>
<text text-anchor="middle" x="3463" y="-224.3" font-family="Times,serif" font-size="14.00">ssd_mother</text>
<polyline fill="none" stroke="black" points="3218,-216.5 3708,-216.5 "/>
<text text-anchor="start" x="3226" y="-201.3" font-family="Times,serif" font-size="14.00">moth_table_id PK</text>
<text text-anchor="start" x="3226" y="-186.3" font-family="Times,serif" font-size="14.00">moth_person_id → ssd_person.pers_person_id (field is both PK/FK)</text>
<text text-anchor="start" x="3226" y="-171.3" font-family="Times,serif" font-size="14.00">moth_childs_person_id PK</text>
<text text-anchor="start" x="3226" y="-156.3" font-family="Times,serif" font-size="14.00">moth_childs_dob</text>
</g>
<!-- ssd_mother&#45;&gt;ssd_person -->
<g id="edge11" class="edge">
<title>ssd_mother&#45;&gt;ssd_person</title>
<path fill="none" stroke="black" d="M3367.16,-148.42C3320.24,-127.89 3262.47,-104.48 3209,-88 3140.44,-66.87 3121.42,-68.7 3051,-55 3004.4,-45.94 2951.44,-36.44 2912.17,-29.55"/>
<polygon fill="black" stroke="black" points="2912.69,-26.09 2902.24,-27.81 2911.49,-32.98 2912.69,-26.09"/>
<text text-anchor="middle" x="3192.5" y="-58.8" font-family="Times,serif" font-size="14.00">moth_person_id</text>
</g>
<!-- ssd_cla_visits -->
<g id="node11" class="node">
<title>ssd_cla_visits</title>
<polygon fill="none" stroke="black" points="2789.5,-479 2789.5,-600 3160.5,-600 3160.5,-479 2789.5,-479"/>
<text text-anchor="middle" x="2975" y="-584.8" font-family="Times,serif" font-size="14.00">ssd_cla_visits</text>
<polyline fill="none" stroke="black" points="2789.5,-577 3160.5,-577 "/>
<text text-anchor="start" x="2797.5" y="-561.8" font-family="Times,serif" font-size="14.00">clav_cla_visit_id PK</text>
<text text-anchor="start" x="2797.5" y="-546.8" font-family="Times,serif" font-size="14.00">clav_cla_id</text>
<text text-anchor="start" x="2797.5" y="-531.8" font-family="Times,serif" font-size="14.00">clav_person_id → ssd_cla_episodes.clae_person_id</text>
<text text-anchor="start" x="2797.5" y="-516.8" font-family="Times,serif" font-size="14.00">clav_cla_visit_date</text>
<text text-anchor="start" x="2797.5" y="-501.8" font-family="Times,serif" font-size="14.00">clav_cla_visit_seen</text>
<text text-anchor="start" x="2797.5" y="-486.8" font-family="Times,serif" font-size="14.00">clav_cla_visit_seen_alone</text>
</g>
<!-- ssd_cla_visits&#45;&gt;ssd_cla_episodes -->
<g id="edge12" class="edge">
<title>ssd_cla_visits&#45;&gt;ssd_cla_episodes</title>
<path fill="none" stroke="black" d="M2929.14,-478.58C2893.26,-436.11 2839.59,-381.47 2780,-351 2669.86,-294.68 2622.9,-334.6 2500.45,-300.28"/>
<polygon fill="black" stroke="black" points="2501.3,-296.88 2490.72,-297.44 2499.34,-303.6 2501.3,-296.88"/>
<text text-anchor="middle" x="2788.5" y="-321.8" font-family="Times,serif" font-size="14.00">clav_person_id</text>
</g>
<!-- ssd_cla_care_plan -->
<g id="node12" class="node">
<title>ssd_cla_care_plan</title>
<polygon fill="none" stroke="black" points="3178.5,-486.5 3178.5,-592.5 3549.5,-592.5 3549.5,-486.5 3178.5,-486.5"/>
<text text-anchor="middle" x="3364" y="-577.3" font-family="Times,serif" font-size="14.00">ssd_cla_care_plan</text>
<polyline fill="none" stroke="black" points="3178.5,-569.5 3549.5,-569.5 "/>
<text text-anchor="start" x="3186.5" y="-554.3" font-family="Times,serif" font-size="14.00">lacp_table_id PK</text>
<text text-anchor="start" x="3186.5" y="-539.3" font-family="Times,serif" font-size="14.00">lacp_person_id → ssd_cla_episodes.clae_person_id</text>
<text text-anchor="start" x="3186.5" y="-524.3" font-family="Times,serif" font-size="14.00">lacp_cla_care_plan_start_date</text>
<text text-anchor="start" x="3186.5" y="-509.3" font-family="Times,serif" font-size="14.00">lacp_cla_care_plan_end_date</text>
<text text-anchor="start" x="3186.5" y="-494.3" font-family="Times,serif" font-size="14.00">lacp_cla_care_plan_json</text>
</g>
<!-- ssd_cla_care_plan&#45;&gt;ssd_cla_episodes -->
<g id="edge13" class="edge">
<title>ssd_cla_care_plan&#45;&gt;ssd_cla_episodes</title>
<path fill="none" stroke="black" d="M3326.28,-486.09C3291.23,-441.87 3234.79,-381.09 3170,-351 3037.29,-289.37 2661.24,-332.15 2500.84,-300.16"/>
<polygon fill="black" stroke="black" points="2501.1,-296.64 2490.59,-297.95 2499.62,-303.48 2501.1,-296.64"/>
<text text-anchor="middle" x="3164" y="-321.8" font-family="Times,serif" font-size="14.00">lacp_person_id</text>
</g>
<!-- ssd_cla_substance_misuse -->
<g id="node13" class="node">
<title>ssd_cla_substance_misuse</title>
<polygon fill="none" stroke="black" points="3568,-486.5 3568,-592.5 3938,-592.5 3938,-486.5 3568,-486.5"/>
<text text-anchor="middle" x="3753" y="-577.3" font-family="Times,serif" font-size="14.00">ssd_cla_substance_misuse</text>
<polyline fill="none" stroke="black" points="3568,-569.5 3938,-569.5 "/>
<text text-anchor="start" x="3576" y="-554.3" font-family="Times,serif" font-size="14.00">clas_substance_misuse_id PK</text>
<text text-anchor="start" x="3576" y="-539.3" font-family="Times,serif" font-size="14.00">clas_person_id → ssd_cla_episodes.clae_person_id</text>
<text text-anchor="start" x="3576" y="-524.3" font-family="Times,serif" font-size="14.00">clas_substance_misuse_date</text>
<text text-anchor="start" x="3576" y="-509.3" font-family="Times,serif" font-size="14.00">clas_substance_misused</text>
<text text-anchor="start" x="3576" y="-494.3" font-family="Times,serif" font-size="14.00">clas_intervention_received</text>
</g>
<!-- ssd_cla_substance_misuse&#45;&gt;ssd_cla_episodes -->
<g id="edge14" class="edge">
<title>ssd_cla_substance_misuse&#45;&gt;ssd_cla_episodes</title>
<path fill="none" stroke="black" d="M3715.65,-486.47C3680.65,-442.16 3624.06,-381.06 3559,-351 3421.98,-287.69 3371.65,-327.22 3221,-318 3143.48,-313.26 2613.19,-316.97 2500.41,-299.84"/>
<polygon fill="black" stroke="black" points="2501.03,-296.39 2490.56,-298.05 2499.78,-303.28 2501.03,-296.39"/>
<text text-anchor="middle" x="3565" y="-321.8" font-family="Times,serif" font-size="14.00">clas_person_id</text>
</g>
<!-- ssd_cla_episodes&#45;&gt;ssd_person -->
<g id="edge15" class="edge">
<title>ssd_cla_episodes&#45;&gt;ssd_person</title>
<path fill="none" stroke="black" d="M2490.74,-90.6C2493.5,-89.71 2496.26,-88.85 2499,-88 2601.19,-56.47 2724.59,-36.57 2795.71,-26.78"/>
<polygon fill="black" stroke="black" points="2796.38,-30.23 2805.82,-25.41 2795.44,-23.29 2796.38,-30.23"/>
<text text-anchor="middle" x="2676.5" y="-58.8" font-family="Times,serif" font-size="14.00">clae_person_id</text>
</g>
<!-- ssd_cla_placements -->
<g id="node18" class="node">
<title>ssd_cla_placements</title>
<polygon fill="none" stroke="black" points="2178,-0.5 2178,-36.5 2334,-36.5 2334,-0.5 2178,-0.5"/>
<text text-anchor="middle" x="2256" y="-14.8" font-family="Times,serif" font-size="14.00">ssd_cla_placements</text>
</g>
<!-- ssd_cla_episodes&#45;&gt;ssd_cla_placements -->
<g id="edge16" class="edge">
<title>ssd_cla_episodes&#45;&gt;ssd_cla_placements</title>
<path fill="none" stroke="black" d="M2256,-88.07C2256,-72.93 2256,-58.56 2256,-46.92"/>
<polygon fill="black" stroke="black" points="2259.5,-46.67 2256,-36.67 2252.5,-46.67 2259.5,-46.67"/>
<text text-anchor="middle" x="2334.5" y="-58.8" font-family="Times,serif" font-size="14.00">clae_cla_placement_id</text>
</g>
<!-- ssd_cla_placement -->
<g id="node15" class="node">
<title>ssd_cla_placement</title>
<polygon fill="none" stroke="black" points="3956,-441.5 3956,-637.5 4270,-637.5 4270,-441.5 3956,-441.5"/>
<text text-anchor="middle" x="4113" y="-622.3" font-family="Times,serif" font-size="14.00">ssd_cla_placement</text>
<polyline fill="none" stroke="black" points="3956,-614.5 4270,-614.5 "/>
<text text-anchor="start" x="3964" y="-599.3" font-family="Times,serif" font-size="14.00">clap_cla_placement_id PK</text>
<text text-anchor="start" x="3964" y="-584.3" font-family="Times,serif" font-size="14.00">clap_cla_placement_start_date</text>
<text text-anchor="start" x="3964" y="-569.3" font-family="Times,serif" font-size="14.00">clap_cla_placement_type</text>
<text text-anchor="start" x="3964" y="-554.3" font-family="Times,serif" font-size="14.00">clap_cla_placement_urn</text>
<text text-anchor="start" x="3964" y="-539.3" font-family="Times,serif" font-size="14.00">clap_cla_placement_distance</text>
<text text-anchor="start" x="3964" y="-524.3" font-family="Times,serif" font-size="14.00">clap_cla_id → ssd_cla_episodes.clae_cla_id</text>
<text text-anchor="start" x="3964" y="-509.3" font-family="Times,serif" font-size="14.00">clap_cla_placement_provider</text>
<text text-anchor="start" x="3964" y="-494.3" font-family="Times,serif" font-size="14.00">clap_cla_placement_postcode</text>
<text text-anchor="start" x="3964" y="-479.3" font-family="Times,serif" font-size="14.00">clap_cla_placement_end_date</text>
<text text-anchor="start" x="3964" y="-464.3" font-family="Times,serif" font-size="14.00">clap_cla_placement_change_reason</text>
<text text-anchor="start" x="3964" y="-449.3" font-family="Times,serif" font-size="14.00">clap_person_id</text>
</g>
<!-- ssd_cla_placement&#45;&gt;ssd_cla_episodes -->
<g id="edge17" class="edge">
<title>ssd_cla_placement&#45;&gt;ssd_cla_episodes</title>
<path fill="none" stroke="black" d="M4050.27,-441.48C4022.85,-407.1 3987.63,-371.82 3947,-351 3806.31,-278.91 2697.51,-331.88 2500.49,-299.94"/>
<polygon fill="black" stroke="black" points="2501.03,-296.48 2490.55,-298.09 2499.75,-303.36 2501.03,-296.48"/>
<text text-anchor="middle" x="3913.5" y="-321.8" font-family="Times,serif" font-size="14.00">clap_cla_id</text>
</g>
</g>
</svg>
