<?xml version="1.0" encoding="UTF-8" standalone="no"?>
<!DOCTYPE svg PUBLIC "-//W3C//DTD SVG 1.1//EN"
 "http://www.w3.org/Graphics/SVG/1.1/DTD/svg11.dtd">
<!-- Generated by graphviz version 2.43.0 (0)
 -->
<!-- Title: G Pages: 1 -->
<svg width="502pt" height="218pt"
 viewBox="0.00 0.00 502.00 218.00" xmlns="http://www.w3.org/2000/svg" xmlns:xlink="http://www.w3.org/1999/xlink">
<g id="graph0" class="graph" transform="scale(1 1) rotate(0) translate(4 214)">
<title>G</title>
<polygon fill="white" stroke="transparent" points="-4,4 -4,-214 498,-214 498,4 -4,4"/>
<!-- ssd_s251_finance -->
<g id="node1" class="node">
<title>ssd_s251_finance</title>
<polygon fill="none" stroke="black" points="0,-88.5 0,-209.5 494,-209.5 494,-88.5 0,-88.5"/>
<text text-anchor="middle" x="247" y="-194.3" font-family="Times,serif" font-size="14.00">ssd_s251_finance</text>
<polyline fill="none" stroke="black" points="0,-186.5 494,-186.5 "/>
<text text-anchor="start" x="8" y="-171.3" font-family="Times,serif" font-size="14.00">s251_table_id PK</text>
<text text-anchor="start" x="8" y="-156.3" font-family="Times,serif" font-size="14.00">s251_cla_placement_id → ssd_cla_placement.clap_cla_placement_id</text>
<text text-anchor="start" x="8" y="-141.3" font-family="Times,serif" font-size="14.00">s251_placeholder_1</text>
<text text-anchor="start" x="8" y="-126.3" font-family="Times,serif" font-size="14.00">s251_placeholder_2</text>
<text text-anchor="start" x="8" y="-111.3" font-family="Times,serif" font-size="14.00">s251_placeholder_3</text>
<text text-anchor="start" x="8" y="-96.3" font-family="Times,serif" font-size="14.00">s251_placeholder_4</text>
</g>
<!-- ssd_cla_placement -->
<g id="node2" class="node">
<title>ssd_cla_placement</title>
<polygon fill="none" stroke="black" points="172.5,-0.5 172.5,-36.5 321.5,-36.5 321.5,-0.5 172.5,-0.5"/>
<text text-anchor="middle" x="247" y="-14.8" font-family="Times,serif" font-size="14.00">ssd_cla_placement</text>
</g>
<!-- ssd_s251_finance&#45;&gt;ssd_cla_placement -->
<g id="edge1" class="edge">
<title>ssd_s251_finance&#45;&gt;ssd_cla_placement</title>
<path fill="none" stroke="black" d="M247,-88.26C247,-73.81 247,-59.05 247,-46.93"/>
<polygon fill="black" stroke="black" points="250.5,-46.63 247,-36.63 243.5,-46.63 250.5,-46.63"/>
<text text-anchor="middle" x="328.5" y="-58.8" font-family="Times,serif" font-size="14.00">s251_cla_placement_id</text>
</g>
</g>
</svg>
