<?xml version="1.0" encoding="UTF-8" standalone="no"?>
<!DOCTYPE svg PUBLIC "-//W3C//DTD SVG 1.1//EN"
 "http://www.w3.org/Graphics/SVG/1.1/DTD/svg11.dtd">
<!-- Generated by graphviz version 2.43.0 (0)
 -->
<!-- Title: G Pages: 1 -->
<svg width="872pt" height="393pt"
 viewBox="0.00 0.00 872.00 393.00" xmlns="http://www.w3.org/2000/svg" xmlns:xlink="http://www.w3.org/1999/xlink">
<g id="graph0" class="graph" transform="scale(1 1) rotate(0) translate(4 389)">
<title>G</title>
<polygon fill="white" stroke="transparent" points="-4,4 -4,-389 868,-389 868,4 -4,4"/>
<!-- ssd_professionals -->
<g id="node1" class="node">
<title>ssd_professionals</title>
<polygon fill="none" stroke="black" points="10.5,-0.5 10.5,-166.5 276.5,-166.5 276.5,-0.5 10.5,-0.5"/>
<text text-anchor="middle" x="143.5" y="-151.3" font-family="Times,serif" font-size="14.00">ssd_professionals</text>
<polyline fill="none" stroke="black" points="10.5,-143.5 276.5,-143.5 "/>
<text text-anchor="start" x="18.5" y="-128.3" font-family="Times,serif" font-size="14.00">prof_professional_id PK</text>
<text text-anchor="start" x="18.5" y="-113.3" font-family="Times,serif" font-size="14.00">prof_staff_id</text>
<text text-anchor="start" x="18.5" y="-98.3" font-family="Times,serif" font-size="14.00">prof_professional_name</text>
<text text-anchor="start" x="18.5" y="-83.3" font-family="Times,serif" font-size="14.00">prof_social_worker_registration_no</text>
<text text-anchor="start" x="18.5" y="-68.3" font-family="Times,serif" font-size="14.00">prof_professional_job_title</text>
<text text-anchor="start" x="18.5" y="-53.3" font-family="Times,serif" font-size="14.00">prof_professional_caseload</text>
<text text-anchor="start" x="18.5" y="-38.3" font-family="Times,serif" font-size="14.00">prof_professional_department</text>
<text text-anchor="start" x="18.5" y="-23.3" font-family="Times,serif" font-size="14.00">prof_full_time_equivalency</text>
<text text-anchor="start" x="18.5" y="-8.3" font-family="Times,serif" font-size="14.00">prof_agency_worker_flag</text>
</g>
<!-- ssd_department -->
<g id="node2" class="node">
<title>ssd_department</title>
<polygon fill="none" stroke="black" points="295,-38 295,-129 696,-129 696,-38 295,-38"/>
<text text-anchor="middle" x="495.5" y="-113.8" font-family="Times,serif" font-size="14.00">ssd_department</text>
<polyline fill="none" stroke="black" points="295,-106 696,-106 "/>
<text text-anchor="start" x="303" y="-90.8" font-family="Times,serif" font-size="14.00">dept_team_id</text>
<text text-anchor="start" x="303" y="-75.8" font-family="Times,serif" font-size="14.00">dept_team_name</text>
<text text-anchor="start" x="303" y="-60.8" font-family="Times,serif" font-size="14.00">dept_team_parent_id → ssd_department.dept_team_id</text>
<text text-anchor="start" x="303" y="-45.8" font-family="Times,serif" font-size="14.00">dept_team_parent_name</text>
</g>
<!-- ssd_department&#45;&gt;ssd_department -->
<g id="edge1" class="edge">
<title>ssd_department&#45;&gt;ssd_department</title>
<path fill="none" stroke="black" d="M696.3,-97.07C707.4,-93.77 714,-89.25 714,-83.5 714,-79.64 711.02,-76.33 705.7,-73.57"/>
<polygon fill="black" stroke="black" points="706.89,-70.28 696.3,-69.93 704.36,-76.81 706.89,-70.28"/>
<text text-anchor="middle" x="789" y="-79.8" font-family="Times,serif" font-size="14.00">dept_team_parent_id</text>
</g>
<!-- ssd_involvements -->
<g id="node3" class="node">
<title>ssd_involvements</title>
<polygon fill="none" stroke="black" points="0,-218.5 0,-384.5 455,-384.5 455,-218.5 0,-218.5"/>
<text text-anchor="middle" x="227.5" y="-369.3" font-family="Times,serif" font-size="14.00">ssd_involvements</text>
<polyline fill="none" stroke="black" points="0,-361.5 455,-361.5 "/>
<text text-anchor="start" x="8" y="-346.3" font-family="Times,serif" font-size="14.00">invo_involvements_id</text>
<text text-anchor="start" x="8" y="-331.3" font-family="Times,serif" font-size="14.00">invo_professional_id → ssd_professionals.prof_professional_id</text>
<text text-anchor="start" x="8" y="-316.3" font-family="Times,serif" font-size="14.00">invo_professional_role_id</text>
<text text-anchor="start" x="8" y="-301.3" font-family="Times,serif" font-size="14.00">invo_professional_team → ssd_department.dept_team_id</text>
<text text-anchor="start" x="8" y="-286.3" font-family="Times,serif" font-size="14.00">invo_involvement_start_date</text>
<text text-anchor="start" x="8" y="-271.3" font-family="Times,serif" font-size="14.00">invo_involvement_end_date</text>
<text text-anchor="start" x="8" y="-256.3" font-family="Times,serif" font-size="14.00">invo_worker_change_reason</text>
<text text-anchor="start" x="8" y="-241.3" font-family="Times,serif" font-size="14.00">invo_person_id</text>
<text text-anchor="start" x="8" y="-226.3" font-family="Times,serif" font-size="14.00">invo_referral_id</text>
</g>
<!-- ssd_involvements&#45;&gt;ssd_professionals -->
<g id="edge2" class="edge">
<title>ssd_involvements&#45;&gt;ssd_professionals</title>
<path fill="none" stroke="black" d="M195.5,-218.22C190.15,-204.47 184.58,-190.12 179.14,-176.15"/>
<polygon fill="black" stroke="black" points="182.29,-174.6 175.41,-166.55 175.77,-177.14 182.29,-174.6"/>
<text text-anchor="middle" x="261" y="-188.8" font-family="Times,serif" font-size="14.00">invo_professional_id</text>
</g>
<!-- ssd_involvements&#45;&gt;ssd_department -->
<g id="edge3" class="edge">
<title>ssd_involvements&#45;&gt;ssd_department</title>
<path fill="none" stroke="black" d="M329.58,-218.22C364.07,-190.43 401.56,-160.21 432.16,-135.55"/>
<polygon fill="black" stroke="black" points="434.6,-138.08 440.19,-129.08 430.21,-132.63 434.6,-138.08"/>
<text text-anchor="middle" x="453" y="-188.8" font-family="Times,serif" font-size="14.00">invo_professional_team</text>
</g>
</g>
</svg>
