<?xml version="1.0" encoding="UTF-8" standalone="no"?>
<!DOCTYPE svg PUBLIC "-//W3C//DTD SVG 1.1//EN"
 "http://www.w3.org/Graphics/SVG/1.1/DTD/svg11.dtd">
<!-- Generated by graphviz version 2.43.0 (0)
 -->
<!-- Title: G Pages: 1 -->
<svg width="1501pt" height="473pt"
 viewBox="0.00 0.00 1500.50 473.00" xmlns="http://www.w3.org/2000/svg" xmlns:xlink="http://www.w3.org/1999/xlink">
<g id="graph0" class="graph" transform="scale(1 1) rotate(0) translate(4 469)">
<title>G</title>
<polygon fill="white" stroke="transparent" points="-4,4 -4,-469 1496.5,-469 1496.5,4 -4,4"/>
<!-- ssd_permanence -->
<g id="node1" class="node">
<title>ssd_permanence</title>
<polygon fill="none" stroke="black" points="391.5,-88.5 391.5,-464.5 885.5,-464.5 885.5,-88.5 391.5,-88.5"/>
<text text-anchor="middle" x="638.5" y="-449.3" font-family="Times,serif" font-size="14.00">ssd_permanence</text>
<polyline fill="none" stroke="black" points="391.5,-441.5 885.5,-441.5 "/>
<text text-anchor="start" x="399.5" y="-426.3" font-family="Times,serif" font-size="14.00">perm_table_id PK</text>
<text text-anchor="start" x="399.5" y="-411.3" font-family="Times,serif" font-size="14.00">perm_person_id → ssd_cla_episodes.clae_cla_episode_id</text>
<text text-anchor="start" x="399.5" y="-396.3" font-family="Times,serif" font-size="14.00">perm_cla_id</text>
<text text-anchor="start" x="399.5" y="-381.3" font-family="Times,serif" font-size="14.00">perm_adm_decision_date</text>
<text text-anchor="start" x="399.5" y="-366.3" font-family="Times,serif" font-size="14.00">perm_ffa_cp_decision_date</text>
<text text-anchor="start" x="399.5" y="-351.3" font-family="Times,serif" font-size="14.00">perm_placement_order_date</text>
<text text-anchor="start" x="399.5" y="-336.3" font-family="Times,serif" font-size="14.00">perm_placed_for_adoption_date</text>
<text text-anchor="start" x="399.5" y="-321.3" font-family="Times,serif" font-size="14.00">perm_matched_date</text>
<text text-anchor="start" x="399.5" y="-306.3" font-family="Times,serif" font-size="14.00">perm_adopted_by_carer_flag</text>
<text text-anchor="start" x="399.5" y="-291.3" font-family="Times,serif" font-size="14.00">perm_placed_ffa_cp_date</text>
<text text-anchor="start" x="399.5" y="-276.3" font-family="Times,serif" font-size="14.00">perm_decision_reversed_date</text>
<text text-anchor="start" x="399.5" y="-261.3" font-family="Times,serif" font-size="14.00">perm_placed_foster_carer_date</text>
<text text-anchor="start" x="399.5" y="-246.3" font-family="Times,serif" font-size="14.00">perm_part_of_sibling_group</text>
<text text-anchor="start" x="399.5" y="-231.3" font-family="Times,serif" font-size="14.00">perm_siblings_placed_together</text>
<text text-anchor="start" x="399.5" y="-216.3" font-family="Times,serif" font-size="14.00">perm_siblings_placed_apart</text>
<text text-anchor="start" x="399.5" y="-201.3" font-family="Times,serif" font-size="14.00">perm_placement_provider_urn</text>
<text text-anchor="start" x="399.5" y="-186.3" font-family="Times,serif" font-size="14.00">perm_decision_reversed_reason</text>
<text text-anchor="start" x="399.5" y="-171.3" font-family="Times,serif" font-size="14.00">perm_permanence_order_date</text>
<text text-anchor="start" x="399.5" y="-156.3" font-family="Times,serif" font-size="14.00">perm_permanence_order_type</text>
<text text-anchor="start" x="399.5" y="-141.3" font-family="Times,serif" font-size="14.00">perm_adoption_worker_id → ssd_professionals.prof_professional_id</text>
<text text-anchor="start" x="399.5" y="-126.3" font-family="Times,serif" font-size="14.00">perm_adopter_sex</text>
<text text-anchor="start" x="399.5" y="-111.3" font-family="Times,serif" font-size="14.00">perm_adopter_legal_status</text>
<text text-anchor="start" x="399.5" y="-96.3" font-family="Times,serif" font-size="14.00">perm_number_of_adopters</text>
</g>
<!-- ssd_cla_episodes -->
<g id="node4" class="node">
<title>ssd_cla_episodes</title>
<polygon fill="none" stroke="black" points="319,-0.5 319,-36.5 456,-36.5 456,-0.5 319,-0.5"/>
<text text-anchor="middle" x="387.5" y="-14.8" font-family="Times,serif" font-size="14.00">ssd_cla_episodes</text>
</g>
<!-- ssd_permanence&#45;&gt;ssd_cla_episodes -->
<g id="edge1" class="edge">
<title>ssd_permanence&#45;&gt;ssd_cla_episodes</title>
<path fill="none" stroke="black" d="M455.09,-88.44C438.22,-71.23 423.13,-55.84 411.52,-44"/>
<polygon fill="black" stroke="black" points="413.9,-41.43 404.4,-36.74 408.91,-46.33 413.9,-41.43"/>
<text text-anchor="middle" x="493.5" y="-58.8" font-family="Times,serif" font-size="14.00">perm_person_id</text>
</g>
<!-- ssd_professionals -->
<g id="node5" class="node">
<title>ssd_professionals</title>
<polygon fill="none" stroke="black" points="621.5,-0.5 621.5,-36.5 763.5,-36.5 763.5,-0.5 621.5,-0.5"/>
<text text-anchor="middle" x="692.5" y="-14.8" font-family="Times,serif" font-size="14.00">ssd_professionals</text>
</g>
<!-- ssd_permanence&#45;&gt;ssd_professionals -->
<g id="edge2" class="edge">
<title>ssd_permanence&#45;&gt;ssd_professionals</title>
<path fill="none" stroke="black" d="M677.96,-88.44C681.31,-72.54 684.34,-58.2 686.75,-46.77"/>
<polygon fill="black" stroke="black" points="690.22,-47.25 688.86,-36.74 683.37,-45.8 690.22,-47.25"/>
<text text-anchor="middle" x="777.5" y="-58.8" font-family="Times,serif" font-size="14.00">perm_adoption_worker_id</text>
</g>
<!-- ssd_cla_previous_permanence -->
<g id="node2" class="node">
<title>ssd_cla_previous_permanence</title>
<polygon fill="none" stroke="black" points="0,-223.5 0,-329.5 373,-329.5 373,-223.5 0,-223.5"/>
<text text-anchor="middle" x="186.5" y="-314.3" font-family="Times,serif" font-size="14.00">ssd_cla_previous_permanence</text>
<polyline fill="none" stroke="black" points="0,-306.5 373,-306.5 "/>
<text text-anchor="start" x="8" y="-291.3" font-family="Times,serif" font-size="14.00">lapp_table_id PK</text>
<text text-anchor="start" x="8" y="-276.3" font-family="Times,serif" font-size="14.00">lapp_person_id → ssd_cla_episodes.clae_person_id</text>
<text text-anchor="start" x="8" y="-261.3" font-family="Times,serif" font-size="14.00">lapp_previous_permanence_order_date</text>
<text text-anchor="start" x="8" y="-246.3" font-family="Times,serif" font-size="14.00">lapp_previous_permanence_option</text>
<text text-anchor="start" x="8" y="-231.3" font-family="Times,serif" font-size="14.00">lapp_previous_permanence_la</text>
</g>
<!-- ssd_cla_previous_permanence&#45;&gt;ssd_cla_episodes -->
<g id="edge3" class="edge">
<title>ssd_cla_previous_permanence&#45;&gt;ssd_cla_episodes</title>
<path fill="none" stroke="black" d="M201.73,-223.5C218.6,-174.16 250.24,-100.94 300.5,-55 306.26,-49.74 312.9,-45.2 319.89,-41.31"/>
<polygon fill="black" stroke="black" points="321.59,-44.37 328.9,-36.71 318.4,-38.14 321.59,-44.37"/>
<text text-anchor="middle" x="354" y="-58.8" font-family="Times,serif" font-size="14.00">lapp_person_id</text>
</g>
<!-- ssd_care_leavers -->
<g id="node3" class="node">
<title>ssd_care_leavers</title>
<polygon fill="none" stroke="black" points="904,-171 904,-382 1409,-382 1409,-171 904,-171"/>
<text text-anchor="middle" x="1156.5" y="-366.8" font-family="Times,serif" font-size="14.00">ssd_care_leavers</text>
<polyline fill="none" stroke="black" points="904,-359 1409,-359 "/>
<text text-anchor="start" x="912" y="-343.8" font-family="Times,serif" font-size="14.00">clea_table_id PK</text>
<text text-anchor="start" x="912" y="-328.8" font-family="Times,serif" font-size="14.00">clea_person_id → ssd_person.pers_person_id</text>
<text text-anchor="start" x="912" y="-313.8" font-family="Times,serif" font-size="14.00">clea_care_leaver_eligibility</text>
<text text-anchor="start" x="912" y="-298.8" font-family="Times,serif" font-size="14.00">clea_care_leaver_in_touch</text>
<text text-anchor="start" x="912" y="-283.8" font-family="Times,serif" font-size="14.00">clea_care_leaver_latest_contact</text>
<text text-anchor="start" x="912" y="-268.8" font-family="Times,serif" font-size="14.00">clea_care_leaver_accommodation</text>
<text text-anchor="start" x="912" y="-253.8" font-family="Times,serif" font-size="14.00">clea_care_leaver_accom_suitable</text>
<text text-anchor="start" x="912" y="-238.8" font-family="Times,serif" font-size="14.00">clea_care_leaver_activity</text>
<text text-anchor="start" x="912" y="-223.8" font-family="Times,serif" font-size="14.00">clea_pathway_plan_review_date</text>
<text text-anchor="start" x="912" y="-208.8" font-family="Times,serif" font-size="14.00">clea_care_leaver_personal_advisor</text>
<text text-anchor="start" x="912" y="-193.8" font-family="Times,serif" font-size="14.00">clea_care_leaver_allocated_team → ssd_department.dept_team_id</text>
<text text-anchor="start" x="912" y="-178.8" font-family="Times,serif" font-size="14.00">clea_care_leaver_worker_id → ssd_professionals.prof_professional_id</text>
</g>
<!-- ssd_care_leavers&#45;&gt;ssd_professionals -->
<g id="edge6" class="edge">
<title>ssd_care_leavers&#45;&gt;ssd_professionals</title>
<path fill="none" stroke="black" d="M1047.19,-170.74C997.69,-128.74 936.26,-83.62 873.5,-55 842.48,-40.85 805.95,-32.34 773.86,-27.21"/>
<polygon fill="black" stroke="black" points="774.02,-23.69 763.61,-25.66 772.98,-30.61 774.02,-23.69"/>
<text text-anchor="middle" x="998" y="-58.8" font-family="Times,serif" font-size="14.00">clea_care_leaver_worker_id</text>
</g>
<!-- ssd_person -->
<g id="node6" class="node">
<title>ssd_person</title>
<polygon fill="none" stroke="black" points="1096.5,-0.5 1096.5,-36.5 1192.5,-36.5 1192.5,-0.5 1096.5,-0.5"/>
<text text-anchor="middle" x="1144.5" y="-14.8" font-family="Times,serif" font-size="14.00">ssd_person</text>
</g>
<!-- ssd_care_leavers&#45;&gt;ssd_person -->
<g id="edge4" class="edge">
<title>ssd_care_leavers&#45;&gt;ssd_person</title>
<path fill="none" stroke="black" d="M1151.58,-170.64C1149.47,-125.58 1147.17,-76.56 1145.79,-46.94"/>
<polygon fill="black" stroke="black" points="1149.27,-46.41 1145.3,-36.58 1142.27,-46.74 1149.27,-46.41"/>
<text text-anchor="middle" x="1199" y="-58.8" font-family="Times,serif" font-size="14.00">clea_person_id</text>
</g>
<!-- ssd_department -->
<g id="node7" class="node">
<title>ssd_department</title>
<polygon fill="none" stroke="black" points="1211,-0.5 1211,-36.5 1342,-36.5 1342,-0.5 1211,-0.5"/>
<text text-anchor="middle" x="1276.5" y="-14.8" font-family="Times,serif" font-size="14.00">ssd_department</text>
</g>
<!-- ssd_care_leavers&#45;&gt;ssd_department -->
<g id="edge5" class="edge">
<title>ssd_care_leavers&#45;&gt;ssd_department</title>
<path fill="none" stroke="black" d="M1207.3,-170.75C1222.69,-138.54 1239.49,-102.91 1254.5,-70 1258.02,-62.29 1261.73,-53.87 1265.09,-46.15"/>
<polygon fill="black" stroke="black" points="1268.35,-47.43 1269.11,-36.86 1261.93,-44.65 1268.35,-47.43"/>
<text text-anchor="middle" x="1376.5" y="-58.8" font-family="Times,serif" font-size="14.00">clea_care_leaver_allocated_team</text>
</g>
</g>
</svg>
