<?xml version="1.0" encoding="UTF-8" standalone="no"?>
<!DOCTYPE svg PUBLIC "-//W3C//DTD SVG 1.1//EN"
 "http://www.w3.org/Graphics/SVG/1.1/DTD/svg11.dtd">
<!-- Generated by graphviz version 2.43.0 (0)
 -->
<!-- Title: G Pages: 1 -->
<svg width="2132pt" height="729pt"
 viewBox="0.00 0.00 2131.50 729.00" xmlns="http://www.w3.org/2000/svg" xmlns:xlink="http://www.w3.org/1999/xlink">
<g id="graph0" class="graph" transform="scale(1 1) rotate(0) translate(4 725)">
<title>G</title>
<polygon fill="white" stroke="transparent" points="-4,4 -4,-725 2127.5,-725 2127.5,4 -4,4"/>
<!-- ssd_assessment_factors -->
<g id="node1" class="node">
<title>ssd_assessment_factors</title>
<polygon fill="none" stroke="black" points="20,-614.5 20,-690.5 487,-690.5 487,-614.5 20,-614.5"/>
<text text-anchor="middle" x="253.5" y="-675.3" font-family="Times,serif" font-size="14.00">ssd_assessment_factors</text>
<polyline fill="none" stroke="black" points="20,-667.5 487,-667.5 "/>
<text text-anchor="start" x="28" y="-652.3" font-family="Times,serif" font-size="14.00">cinf_table_id PK</text>
<text text-anchor="start" x="28" y="-637.3" font-family="Times,serif" font-size="14.00">cinf_assessment_id → ssd_cin_assessments.cina_assessment_id</text>
<text text-anchor="start" x="28" y="-622.3" font-family="Times,serif" font-size="14.00">cinf_assessment_factors_json</text>
</g>
<!-- ssd_cin_assessments -->
<g id="node2" class="node">
<title>ssd_cin_assessments</title>
<polygon fill="none" stroke="black" points="0,-351.5 0,-532.5 507,-532.5 507,-351.5 0,-351.5"/>
<text text-anchor="middle" x="253.5" y="-517.3" font-family="Times,serif" font-size="14.00">ssd_cin_assessments</text>
<polyline fill="none" stroke="black" points="0,-509.5 507,-509.5 "/>
<text text-anchor="start" x="8" y="-494.3" font-family="Times,serif" font-size="14.00">cina_assessment_id PK</text>
<text text-anchor="start" x="8" y="-479.3" font-family="Times,serif" font-size="14.00">cina_person_id → ssd_person.pers_person_id</text>
<text text-anchor="start" x="8" y="-464.3" font-family="Times,serif" font-size="14.00">cina_referral_id → ssd_cin_episodes.cine_referral_id</text>
<text text-anchor="start" x="8" y="-449.3" font-family="Times,serif" font-size="14.00">cina_assessment_start_date</text>
<text text-anchor="start" x="8" y="-434.3" font-family="Times,serif" font-size="14.00">cina_assessment_child_seen</text>
<text text-anchor="start" x="8" y="-419.3" font-family="Times,serif" font-size="14.00">cina_assessment_auth_date</text>
<text text-anchor="start" x="8" y="-404.3" font-family="Times,serif" font-size="14.00">cina_assessment_outcome_json</text>
<text text-anchor="start" x="8" y="-389.3" font-family="Times,serif" font-size="14.00">cina_assessment_outcome_nfa</text>
<text text-anchor="start" x="8" y="-374.3" font-family="Times,serif" font-size="14.00">cina_assessment_team → ssd_department.dept_team_id</text>
<text text-anchor="start" x="8" y="-359.3" font-family="Times,serif" font-size="14.00">cina_assessment_worker_id → ssd_professionals.prof_professional_id</text>
</g>
<!-- ssd_assessment_factors&#45;&gt;ssd_cin_assessments -->
<g id="edge1" class="edge">
<title>ssd_assessment_factors&#45;&gt;ssd_cin_assessments</title>
<path fill="none" stroke="black" d="M253.5,-614.22C253.5,-594.16 253.5,-568.36 253.5,-542.91"/>
<polygon fill="black" stroke="black" points="257,-542.81 253.5,-532.81 250,-542.81 257,-542.81"/>
<text text-anchor="middle" x="322" y="-554.8" font-family="Times,serif" font-size="14.00">cinf_assessment_id</text>
</g>
<!-- ssd_cin_episodes -->
<g id="node3" class="node">
<title>ssd_cin_episodes</title>
<polygon fill="none" stroke="black" points="584,-88.5 584,-299.5 1063,-299.5 1063,-88.5 584,-88.5"/>
<text text-anchor="middle" x="823.5" y="-284.3" font-family="Times,serif" font-size="14.00">ssd_cin_episodes</text>
<polyline fill="none" stroke="black" points="584,-276.5 1063,-276.5 "/>
<text text-anchor="start" x="592" y="-261.3" font-family="Times,serif" font-size="14.00">cine_referral_id PK</text>
<text text-anchor="start" x="592" y="-246.3" font-family="Times,serif" font-size="14.00">cine_person_id → ssd_person.pers_person_id</text>
<text text-anchor="start" x="592" y="-231.3" font-family="Times,serif" font-size="14.00">cine_referral_date</text>
<text text-anchor="start" x="592" y="-216.3" font-family="Times,serif" font-size="14.00">cine_cin_primary_need_code</text>
<text text-anchor="start" x="592" y="-201.3" font-family="Times,serif" font-size="14.00">cine_referral_source_code</text>
<text text-anchor="start" x="592" y="-186.3" font-family="Times,serif" font-size="14.00">cine_referral_source_desc</text>
<text text-anchor="start" x="592" y="-171.3" font-family="Times,serif" font-size="14.00">cine_referral_outcome_json</text>
<text text-anchor="start" x="592" y="-156.3" font-family="Times,serif" font-size="14.00">cine_referral_nfa</text>
<text text-anchor="start" x="592" y="-141.3" font-family="Times,serif" font-size="14.00">cine_close_reason</text>
<text text-anchor="start" x="592" y="-126.3" font-family="Times,serif" font-size="14.00">cine_close_date</text>
<text text-anchor="start" x="592" y="-111.3" font-family="Times,serif" font-size="14.00">cine_referral_team → ssd_department.dept_team_id</text>
<text text-anchor="start" x="592" y="-96.3" font-family="Times,serif" font-size="14.00">cine_referral_worker_id → ssd_professionals.prof_professional_id</text>
</g>
<!-- ssd_cin_assessments&#45;&gt;ssd_cin_episodes -->
<g id="edge3" class="edge">
<title>ssd_cin_assessments&#45;&gt;ssd_cin_episodes</title>
<path fill="none" stroke="black" d="M460.9,-351.49C497.72,-335.6 536.42,-318.9 574.27,-302.56"/>
<polygon fill="black" stroke="black" points="576.07,-305.6 583.87,-298.42 573.3,-299.17 576.07,-305.6"/>
<text text-anchor="middle" x="594.5" y="-321.8" font-family="Times,serif" font-size="14.00">cina_referral_id</text>
</g>
<!-- ssd_person -->
<g id="node8" class="node">
<title>ssd_person</title>
<polygon fill="none" stroke="black" points="6.5,-0.5 6.5,-36.5 102.5,-36.5 102.5,-0.5 6.5,-0.5"/>
<text text-anchor="middle" x="54.5" y="-14.8" font-family="Times,serif" font-size="14.00">ssd_person</text>
</g>
<!-- ssd_cin_assessments&#45;&gt;ssd_person -->
<g id="edge2" class="edge">
<title>ssd_cin_assessments&#45;&gt;ssd_person</title>
<path fill="none" stroke="black" d="M82.39,-351.42C66.1,-336.38 51.83,-319.29 41.5,-300 -3.19,-216.61 27.35,-98.46 44.74,-46.17"/>
<polygon fill="black" stroke="black" points="48.08,-47.21 48.01,-36.62 41.46,-44.94 48.08,-47.21"/>
<text text-anchor="middle" x="94.5" y="-190.3" font-family="Times,serif" font-size="14.00">cina_person_id</text>
</g>
<!-- ssd_department -->
<g id="node9" class="node">
<title>ssd_department</title>
<polygon fill="none" stroke="black" points="835,-0.5 835,-36.5 966,-36.5 966,-0.5 835,-0.5"/>
<text text-anchor="middle" x="900.5" y="-14.8" font-family="Times,serif" font-size="14.00">ssd_department</text>
</g>
<!-- ssd_cin_assessments&#45;&gt;ssd_department -->
<g id="edge4" class="edge">
<title>ssd_cin_assessments&#45;&gt;ssd_department</title>
<path fill="none" stroke="black" d="M199.07,-351.35C159.54,-273.41 122.65,-161.72 183.5,-88 223.77,-39.22 648.32,-24.76 824.52,-20.84"/>
<polygon fill="black" stroke="black" points="824.83,-24.33 834.75,-20.62 824.67,-17.33 824.83,-24.33"/>
<text text-anchor="middle" x="265" y="-190.3" font-family="Times,serif" font-size="14.00">cina_assessment_team</text>
</g>
<!-- ssd_professionals -->
<g id="node10" class="node">
<title>ssd_professionals</title>
<polygon fill="none" stroke="black" points="986.5,-0.5 986.5,-36.5 1128.5,-36.5 1128.5,-0.5 986.5,-0.5"/>
<text text-anchor="middle" x="1057.5" y="-14.8" font-family="Times,serif" font-size="14.00">ssd_professionals</text>
</g>
<!-- ssd_cin_assessments&#45;&gt;ssd_professionals -->
<g id="edge5" class="edge">
<title>ssd_cin_assessments&#45;&gt;ssd_professionals</title>
<path fill="none" stroke="black" d="M320.92,-351.24C330.8,-334.84 339.87,-317.4 346.5,-300 363.46,-255.51 342.84,-120.64 377.5,-88 425.97,-42.36 908.64,-46.72 974.5,-37 974.97,-36.93 975.45,-36.86 975.92,-36.79"/>
<polygon fill="black" stroke="black" points="976.76,-40.2 986.07,-35.14 975.64,-33.29 976.76,-40.2"/>
<text text-anchor="middle" x="476" y="-190.3" font-family="Times,serif" font-size="14.00">cina_assessment_worker_id</text>
</g>
<!-- ssd_cin_episodes&#45;&gt;ssd_person -->
<g id="edge6" class="edge">
<title>ssd_cin_episodes&#45;&gt;ssd_person</title>
<path fill="none" stroke="black" d="M583.75,-92C578.98,-90.6 574.22,-89.27 569.5,-88 407.49,-44.53 209.08,-28.07 112.65,-22.32"/>
<polygon fill="black" stroke="black" points="112.71,-18.81 102.53,-21.73 112.31,-25.8 112.71,-18.81"/>
<text text-anchor="middle" x="540.5" y="-58.8" font-family="Times,serif" font-size="14.00">cine_person_id</text>
</g>
<!-- ssd_cin_episodes&#45;&gt;ssd_department -->
<g id="edge7" class="edge">
<title>ssd_cin_episodes&#45;&gt;ssd_department</title>
<path fill="none" stroke="black" d="M870.07,-88.07C877,-72.46 883.56,-57.67 888.8,-45.85"/>
<polygon fill="black" stroke="black" points="892.02,-47.23 892.88,-36.67 885.62,-44.39 892.02,-47.23"/>
<text text-anchor="middle" x="951.5" y="-58.8" font-family="Times,serif" font-size="14.00">cine_referral_team</text>
</g>
<!-- ssd_cin_episodes&#45;&gt;ssd_professionals -->
<g id="edge8" class="edge">
<title>ssd_cin_episodes&#45;&gt;ssd_professionals</title>
<path fill="none" stroke="black" d="M1001.61,-88.38C1008.87,-82.42 1015.87,-76.29 1022.5,-70 1030.08,-62.81 1036.99,-53.72 1042.62,-45.25"/>
<polygon fill="black" stroke="black" points="1045.61,-47.07 1048.01,-36.74 1039.7,-43.32 1045.61,-47.07"/>
<text text-anchor="middle" x="1120" y="-58.8" font-family="Times,serif" font-size="14.00">cine_referral_worker_id</text>
</g>
<!-- ssd_cla_visits -->
<g id="node4" class="node">
<title>ssd_cla_visits</title>
<polygon fill="none" stroke="black" points="1384,-592 1384,-713 1755,-713 1755,-592 1384,-592"/>
<text text-anchor="middle" x="1569.5" y="-697.8" font-family="Times,serif" font-size="14.00">ssd_cla_visits</text>
<polyline fill="none" stroke="black" points="1384,-690 1755,-690 "/>
<text text-anchor="start" x="1392" y="-674.8" font-family="Times,serif" font-size="14.00">clav_cla_visit_id PK</text>
<text text-anchor="start" x="1392" y="-659.8" font-family="Times,serif" font-size="14.00">clav_cla_id</text>
<text text-anchor="start" x="1392" y="-644.8" font-family="Times,serif" font-size="14.00">clav_person_id → ssd_cla_episodes.clae_person_id</text>
<text text-anchor="start" x="1392" y="-629.8" font-family="Times,serif" font-size="14.00">clav_cla_visit_date</text>
<text text-anchor="start" x="1392" y="-614.8" font-family="Times,serif" font-size="14.00">clav_cla_visit_seen</text>
<text text-anchor="start" x="1392" y="-599.8" font-family="Times,serif" font-size="14.00">clav_cla_visit_seen_alone</text>
</g>
<!-- ssd_cla_episodes -->
<g id="node11" class="node">
<title>ssd_cla_episodes</title>
<polygon fill="none" stroke="black" points="1501,-424 1501,-460 1638,-460 1638,-424 1501,-424"/>
<text text-anchor="middle" x="1569.5" y="-438.3" font-family="Times,serif" font-size="14.00">ssd_cla_episodes</text>
</g>
<!-- ssd_cla_visits&#45;&gt;ssd_cla_episodes -->
<g id="edge9" class="edge">
<title>ssd_cla_visits&#45;&gt;ssd_cla_episodes</title>
<path fill="none" stroke="black" d="M1569.5,-591.75C1569.5,-551.88 1569.5,-501.33 1569.5,-470.61"/>
<polygon fill="black" stroke="black" points="1573,-470.24 1569.5,-460.24 1566,-470.24 1573,-470.24"/>
<text text-anchor="middle" x="1622" y="-554.8" font-family="Times,serif" font-size="14.00">clav_person_id</text>
</g>
<!-- ssd_cin_visits -->
<g id="node5" class="node">
<title>ssd_cin_visits</title>
<polygon fill="none" stroke="black" points="609,-381.5 609,-502.5 982,-502.5 982,-381.5 609,-381.5"/>
<text text-anchor="middle" x="795.5" y="-487.3" font-family="Times,serif" font-size="14.00">ssd_cin_visits</text>
<polyline fill="none" stroke="black" points="609,-479.5 982,-479.5 "/>
<text text-anchor="start" x="617" y="-464.3" font-family="Times,serif" font-size="14.00">cinv_cin_visit_id PK</text>
<text text-anchor="start" x="617" y="-449.3" font-family="Times,serif" font-size="14.00">cinv_person_id → ssd_cin_episodes.cine_person_id</text>
<text text-anchor="start" x="617" y="-434.3" font-family="Times,serif" font-size="14.00">cinv_cin_visit_date</text>
<text text-anchor="start" x="617" y="-419.3" font-family="Times,serif" font-size="14.00">cinv_cin_visit_seen</text>
<text text-anchor="start" x="617" y="-404.3" font-family="Times,serif" font-size="14.00">cinv_cin_visit_seen_alone</text>
<text text-anchor="start" x="617" y="-389.3" font-family="Times,serif" font-size="14.00">cinv_cin_visit_bedroom</text>
</g>
<!-- ssd_cin_visits&#45;&gt;ssd_cin_episodes -->
<g id="edge10" class="edge">
<title>ssd_cin_visits&#45;&gt;ssd_cin_episodes</title>
<path fill="none" stroke="black" d="M802.28,-381.45C804.74,-359.83 807.61,-334.61 810.43,-309.83"/>
<polygon fill="black" stroke="black" points="813.94,-309.95 811.59,-299.62 806.98,-309.16 813.94,-309.95"/>
<text text-anchor="middle" x="862.5" y="-321.8" font-family="Times,serif" font-size="14.00">cinv_person_id</text>
</g>
<!-- ssd_cp_visits -->
<g id="node6" class="node">
<title>ssd_cp_visits</title>
<polygon fill="none" stroke="black" points="1773.5,-584.5 1773.5,-720.5 2123.5,-720.5 2123.5,-584.5 1773.5,-584.5"/>
<text text-anchor="middle" x="1948.5" y="-705.3" font-family="Times,serif" font-size="14.00">ssd_cp_visits</text>
<polyline fill="none" stroke="black" points="1773.5,-697.5 2123.5,-697.5 "/>
<text text-anchor="start" x="1781.5" y="-682.3" font-family="Times,serif" font-size="14.00">cppv_cp_visit_id PK</text>
<text text-anchor="start" x="1781.5" y="-667.3" font-family="Times,serif" font-size="14.00">cppv_person_id → ssd_cp_plans.cppl_person_id</text>
<text text-anchor="start" x="1781.5" y="-652.3" font-family="Times,serif" font-size="14.00">cppv_cp_plan_id</text>
<text text-anchor="start" x="1781.5" y="-637.3" font-family="Times,serif" font-size="14.00">cppv_cp_visit_date</text>
<text text-anchor="start" x="1781.5" y="-622.3" font-family="Times,serif" font-size="14.00">cppv_cp_visit_seen</text>
<text text-anchor="start" x="1781.5" y="-607.3" font-family="Times,serif" font-size="14.00">cppv_cp_visit_seen_alone</text>
<text text-anchor="start" x="1781.5" y="-592.3" font-family="Times,serif" font-size="14.00">cppv_cp_visit_bedroom</text>
</g>
<!-- ssd_cp_plans -->
<g id="node12" class="node">
<title>ssd_cp_plans</title>
<polygon fill="none" stroke="black" points="1894,-424 1894,-460 2003,-460 2003,-424 1894,-424"/>
<text text-anchor="middle" x="1948.5" y="-438.3" font-family="Times,serif" font-size="14.00">ssd_cp_plans</text>
</g>
<!-- ssd_cp_visits&#45;&gt;ssd_cp_plans -->
<g id="edge11" class="edge">
<title>ssd_cp_visits&#45;&gt;ssd_cp_plans</title>
<path fill="none" stroke="black" d="M1948.5,-584.38C1948.5,-545.75 1948.5,-499.29 1948.5,-470.44"/>
<polygon fill="black" stroke="black" points="1952,-470.3 1948.5,-460.3 1945,-470.3 1952,-470.3"/>
<text text-anchor="middle" x="2003.5" y="-554.8" font-family="Times,serif" font-size="14.00">cppv_person_id</text>
</g>
<!-- ssd_cin_plans -->
<g id="node7" class="node">
<title>ssd_cin_plans</title>
<polygon fill="none" stroke="black" points="1000,-374 1000,-510 1483,-510 1483,-374 1000,-374"/>
<text text-anchor="middle" x="1241.5" y="-494.8" font-family="Times,serif" font-size="14.00">ssd_cin_plans</text>
<polyline fill="none" stroke="black" points="1000,-487 1483,-487 "/>
<text text-anchor="start" x="1008" y="-471.8" font-family="Times,serif" font-size="14.00">cinp_cin_plan_id PK</text>
<text text-anchor="start" x="1008" y="-456.8" font-family="Times,serif" font-size="14.00">cinp_referral_id → ssd_cin_episodes.cine_referral_id</text>
<text text-anchor="start" x="1008" y="-441.8" font-family="Times,serif" font-size="14.00">cinp_person_id → ssd_person.pers_person_id</text>
<text text-anchor="start" x="1008" y="-426.8" font-family="Times,serif" font-size="14.00">cinp_cin_plan_start_date</text>
<text text-anchor="start" x="1008" y="-411.8" font-family="Times,serif" font-size="14.00">cinp_cin_plan_end_date</text>
<text text-anchor="start" x="1008" y="-396.8" font-family="Times,serif" font-size="14.00">cinp_cin_plan_team → ssd_department.dept_team_id</text>
<text text-anchor="start" x="1008" y="-381.8" font-family="Times,serif" font-size="14.00">cinp_cin_plan_worker_id → ssd_professionals.prof_professional_id</text>
</g>
<!-- ssd_cin_plans&#45;&gt;ssd_cin_episodes -->
<g id="edge12" class="edge">
<title>ssd_cin_plans&#45;&gt;ssd_cin_episodes</title>
<path fill="none" stroke="black" d="M1050.2,-373.88C1023.67,-361.73 997.36,-348.07 973.5,-333 960.74,-324.94 948.07,-315.73 935.81,-305.99"/>
<polygon fill="black" stroke="black" points="937.78,-303.09 927.81,-299.51 933.38,-308.52 937.78,-303.09"/>
<text text-anchor="middle" x="1029.5" y="-321.8" font-family="Times,serif" font-size="14.00">cinp_referral_id</text>
</g>
<!-- ssd_cin_plans&#45;&gt;ssd_person -->
<g id="edge13" class="edge">
<title>ssd_cin_plans&#45;&gt;ssd_person</title>
<path fill="none" stroke="black" d="M1165.38,-373.8C1145.02,-352.15 1124.96,-326.78 1111.5,-300 1068.45,-214.32 1143.15,-151.72 1071.5,-88 1062.47,-79.97 327.67,-35.73 112.86,-22.95"/>
<polygon fill="black" stroke="black" points="112.92,-19.45 102.73,-22.35 112.5,-26.44 112.92,-19.45"/>
<text text-anchor="middle" x="1164.5" y="-190.3" font-family="Times,serif" font-size="14.00">cinp_person_id</text>
</g>
<!-- ssd_cin_plans&#45;&gt;ssd_department -->
<g id="edge14" class="edge">
<title>ssd_cin_plans&#45;&gt;ssd_department</title>
<path fill="none" stroke="black" d="M1240.4,-373.88C1238,-269.26 1230.61,-76.94 1208.5,-55 1190.23,-36.86 1002.95,-40.86 977.5,-37 977.16,-36.95 976.81,-36.9 976.47,-36.84"/>
<polygon fill="black" stroke="black" points="976.77,-33.34 966.33,-35.12 975.6,-40.24 976.77,-33.34"/>
<text text-anchor="middle" x="1308" y="-190.3" font-family="Times,serif" font-size="14.00">cinp_cin_plan_team</text>
</g>
<!-- ssd_cin_plans&#45;&gt;ssd_professionals -->
<g id="edge15" class="edge">
<title>ssd_cin_plans&#45;&gt;ssd_professionals</title>
<path fill="none" stroke="black" d="M1331.62,-373.64C1352.99,-352.65 1372.93,-327.66 1384.5,-300 1420.86,-213.08 1442.28,-162.42 1384.5,-88 1354.9,-49.88 1225.61,-32.37 1138.74,-24.79"/>
<polygon fill="black" stroke="black" points="1138.89,-21.29 1128.63,-23.93 1138.3,-28.27 1138.89,-21.29"/>
<text text-anchor="middle" x="1507" y="-190.3" font-family="Times,serif" font-size="14.00">cinp_cin_plan_worker_id</text>
</g>
</g>
</svg>
