<?xml version="1.0" encoding="UTF-8" standalone="no"?>
<!DOCTYPE svg PUBLIC "-//W3C//DTD SVG 1.1//EN"
 "http://www.w3.org/Graphics/SVG/1.1/DTD/svg11.dtd">
<!-- Generated by graphviz version 2.43.0 (0)
 -->
<!-- Title: G Pages: 1 -->
<svg width="3801pt" height="581pt"
 viewBox="0.00 0.00 3801.00 581.00" xmlns="http://www.w3.org/2000/svg" xmlns:xlink="http://www.w3.org/1999/xlink">
<g id="graph0" class="graph" transform="scale(1 1) rotate(0) translate(4 577)">
<title>G</title>
<polygon fill="white" stroke="transparent" points="-4,4 -4,-577 3797,-577 3797,4 -4,4"/>
<!-- ssd_ehcp_requests -->
<g id="node1" class="node">
<title>ssd_ehcp_requests</title>
<polygon fill="none" stroke="black" points="0,-466.5 0,-572.5 338,-572.5 338,-466.5 0,-466.5"/>
<text text-anchor="middle" x="169" y="-557.3" font-family="Times,serif" font-size="14.00">ssd_ehcp_requests</text>
<polyline fill="none" stroke="black" points="0,-549.5 338,-549.5 "/>
<text text-anchor="start" x="8" y="-534.3" font-family="Times,serif" font-size="14.00">ehcr_ehcp_request_id PK</text>
<text text-anchor="start" x="8" y="-519.3" font-family="Times,serif" font-size="14.00">ehcr_send_table_id → ssd_send.send_table_id</text>
<text text-anchor="start" x="8" y="-504.3" font-family="Times,serif" font-size="14.00">ehcr_ehcp_req_date</text>
<text text-anchor="start" x="8" y="-489.3" font-family="Times,serif" font-size="14.00">ehcr_ehcp_req_outcome_date</text>
<text text-anchor="start" x="8" y="-474.3" font-family="Times,serif" font-size="14.00">ehcr_ehcp_req_outcome</text>
</g>
<!-- ssd_send -->
<g id="node9" class="node">
<title>ssd_send</title>
<polygon fill="none" stroke="black" points="0,-293.5 0,-399.5 338,-399.5 338,-293.5 0,-293.5"/>
<text text-anchor="middle" x="169" y="-384.3" font-family="Times,serif" font-size="14.00">ssd_send</text>
<polyline fill="none" stroke="black" points="0,-376.5 338,-376.5 "/>
<text text-anchor="start" x="8" y="-361.3" font-family="Times,serif" font-size="14.00">send_table_id PK</text>
<text text-anchor="start" x="8" y="-346.3" font-family="Times,serif" font-size="14.00">send_upn</text>
<text text-anchor="start" x="8" y="-331.3" font-family="Times,serif" font-size="14.00">send_uln</text>
<text text-anchor="start" x="8" y="-316.3" font-family="Times,serif" font-size="14.00">send_upn_unknown</text>
<text text-anchor="start" x="8" y="-301.3" font-family="Times,serif" font-size="14.00">send_person_id → ssd_person.pers_person_id</text>
</g>
<!-- ssd_ehcp_requests&#45;&gt;ssd_send -->
<g id="edge1" class="edge">
<title>ssd_ehcp_requests&#45;&gt;ssd_send</title>
<path fill="none" stroke="black" d="M169,-466.27C169,-448.45 169,-428.35 169,-409.82"/>
<polygon fill="black" stroke="black" points="172.5,-409.71 169,-399.71 165.5,-409.71 172.5,-409.71"/>
<text text-anchor="middle" x="237" y="-436.8" font-family="Times,serif" font-size="14.00">ehcr_send_table_id</text>
</g>
<!-- ssd_linked_identifiers -->
<g id="node2" class="node">
<title>ssd_linked_identifiers</title>
<polygon fill="none" stroke="black" points="356.5,-286 356.5,-407 687.5,-407 687.5,-286 356.5,-286"/>
<text text-anchor="middle" x="522" y="-391.8" font-family="Times,serif" font-size="14.00">ssd_linked_identifiers</text>
<polyline fill="none" stroke="black" points="356.5,-384 687.5,-384 "/>
<text text-anchor="start" x="364.5" y="-368.8" font-family="Times,serif" font-size="14.00">link_table_id PK</text>
<text text-anchor="start" x="364.5" y="-353.8" font-family="Times,serif" font-size="14.00">link_person_id → ssd_person.pers_person_id</text>
<text text-anchor="start" x="364.5" y="-338.8" font-family="Times,serif" font-size="14.00">link_identifier_type</text>
<text text-anchor="start" x="364.5" y="-323.8" font-family="Times,serif" font-size="14.00">link_identifier_value</text>
<text text-anchor="start" x="364.5" y="-308.8" font-family="Times,serif" font-size="14.00">link_valid_from_date</text>
<text text-anchor="start" x="364.5" y="-293.8" font-family="Times,serif" font-size="14.00">link_valid_to_date</text>
</g>
<!-- ssd_person -->
<g id="node8" class="node">
<title>ssd_person</title>
<polygon fill="none" stroke="black" points="1499,-0.5 1499,-226.5 1675,-226.5 1675,-0.5 1499,-0.5"/>
<text text-anchor="middle" x="1587" y="-211.3" font-family="Times,serif" font-size="14.00">ssd_person</text>
<polyline fill="none" stroke="black" points="1499,-203.5 1675,-203.5 "/>
<text text-anchor="start" x="1507" y="-188.3" font-family="Times,serif" font-size="14.00">pers_person_id PK</text>
<text text-anchor="start" x="1507" y="-173.3" font-family="Times,serif" font-size="14.00">pers_sex</text>
<text text-anchor="start" x="1507" y="-158.3" font-family="Times,serif" font-size="14.00">pers_gender</text>
<text text-anchor="start" x="1507" y="-143.3" font-family="Times,serif" font-size="14.00">pers_ethnicity</text>
<text text-anchor="start" x="1507" y="-128.3" font-family="Times,serif" font-size="14.00">pers_dob</text>
<text text-anchor="start" x="1507" y="-113.3" font-family="Times,serif" font-size="14.00">pers_common_child_id</text>
<text text-anchor="start" x="1507" y="-98.3" font-family="Times,serif" font-size="14.00">pers_legacy_id</text>
<text text-anchor="start" x="1507" y="-83.3" font-family="Times,serif" font-size="14.00">pers_upn_unknown</text>
<text text-anchor="start" x="1507" y="-68.3" font-family="Times,serif" font-size="14.00">pers_send_flag</text>
<text text-anchor="start" x="1507" y="-53.3" font-family="Times,serif" font-size="14.00">pers_expected_dob</text>
<text text-anchor="start" x="1507" y="-38.3" font-family="Times,serif" font-size="14.00">pers_death_date</text>
<text text-anchor="start" x="1507" y="-23.3" font-family="Times,serif" font-size="14.00">pers_is_mother</text>
<text text-anchor="start" x="1507" y="-8.3" font-family="Times,serif" font-size="14.00">pers_nationality</text>
</g>
<!-- ssd_linked_identifiers&#45;&gt;ssd_person -->
<g id="edge2" class="edge">
<title>ssd_linked_identifiers&#45;&gt;ssd_person</title>
<path fill="none" stroke="black" d="M670.78,-285.98C679.59,-283.12 688.38,-280.43 697,-278 979.32,-198.37 1323.26,-147.92 1488.75,-126.45"/>
<polygon fill="black" stroke="black" points="1489.44,-129.89 1498.91,-125.14 1488.55,-122.95 1489.44,-129.89"/>
<text text-anchor="middle" x="867.5" y="-248.8" font-family="Times,serif" font-size="14.00">link_person_id</text>
</g>
<!-- ssd_family -->
<g id="node3" class="node">
<title>ssd_family</title>
<polygon fill="none" stroke="black" points="706,-308.5 706,-384.5 1042,-384.5 1042,-308.5 706,-308.5"/>
<text text-anchor="middle" x="874" y="-369.3" font-family="Times,serif" font-size="14.00">ssd_family</text>
<polyline fill="none" stroke="black" points="706,-361.5 1042,-361.5 "/>
<text text-anchor="start" x="714" y="-346.3" font-family="Times,serif" font-size="14.00">fami_table_id</text>
<text text-anchor="start" x="714" y="-331.3" font-family="Times,serif" font-size="14.00">fami_family_id PK</text>
<text text-anchor="start" x="714" y="-316.3" font-family="Times,serif" font-size="14.00">fami_person_id → ssd_person.pers_person_id</text>
</g>
<!-- ssd_family&#45;&gt;ssd_person -->
<g id="edge3" class="edge">
<title>ssd_family&#45;&gt;ssd_person</title>
<path fill="none" stroke="black" d="M967.72,-308.39C994.49,-298.17 1023.78,-287.33 1051,-278 1202.5,-226.07 1380.78,-173.33 1488.77,-142.28"/>
<polygon fill="black" stroke="black" points="1490.03,-145.56 1498.67,-139.44 1488.09,-138.83 1490.03,-145.56"/>
<text text-anchor="middle" x="1192" y="-248.8" font-family="Times,serif" font-size="14.00">fami_person_id</text>
</g>
<!-- ssd_sdq_scores -->
<g id="node4" class="node">
<title>ssd_sdq_scores</title>
<polygon fill="none" stroke="black" points="3029.5,-466.5 3029.5,-572.5 3404.5,-572.5 3404.5,-466.5 3029.5,-466.5"/>
<text text-anchor="middle" x="3217" y="-557.3" font-family="Times,serif" font-size="14.00">ssd_sdq_scores</text>
<polyline fill="none" stroke="black" points="3029.5,-549.5 3404.5,-549.5 "/>
<text text-anchor="start" x="3037.5" y="-534.3" font-family="Times,serif" font-size="14.00">csdq_table_id PK</text>
<text text-anchor="start" x="3037.5" y="-519.3" font-family="Times,serif" font-size="14.00">csdq_person_id → ssd_cla_episodes.clae_person_id</text>
<text text-anchor="start" x="3037.5" y="-504.3" font-family="Times,serif" font-size="14.00">csdq_sdq_completed_date</text>
<text text-anchor="start" x="3037.5" y="-489.3" font-family="Times,serif" font-size="14.00">csdq_sdq_reason</text>
<text text-anchor="start" x="3037.5" y="-474.3" font-family="Times,serif" font-size="14.00">csdq_sdq_score</text>
</g>
<!-- ssd_cla_episodes -->
<g id="node14" class="node">
<title>ssd_cla_episodes</title>
<polygon fill="none" stroke="black" points="3344.5,-328.5 3344.5,-364.5 3481.5,-364.5 3481.5,-328.5 3344.5,-328.5"/>
<text text-anchor="middle" x="3413" y="-342.8" font-family="Times,serif" font-size="14.00">ssd_cla_episodes</text>
</g>
<!-- ssd_sdq_scores&#45;&gt;ssd_cla_episodes -->
<g id="edge4" class="edge">
<title>ssd_sdq_scores&#45;&gt;ssd_cla_episodes</title>
<path fill="none" stroke="black" d="M3276.97,-466.42C3295.87,-449.99 3316.82,-431.75 3336,-415 3352.5,-400.6 3370.95,-384.42 3385.65,-371.52"/>
<polygon fill="black" stroke="black" points="3388.19,-373.95 3393.4,-364.72 3383.57,-368.69 3388.19,-373.95"/>
<text text-anchor="middle" x="3368.5" y="-436.8" font-family="Times,serif" font-size="14.00">csdq_person_id</text>
</g>
<!-- ssd_cla_convictions -->
<g id="node5" class="node">
<title>ssd_cla_convictions</title>
<polygon fill="none" stroke="black" points="3423,-474 3423,-565 3793,-565 3793,-474 3423,-474"/>
<text text-anchor="middle" x="3608" y="-549.8" font-family="Times,serif" font-size="14.00">ssd_cla_convictions</text>
<polyline fill="none" stroke="black" points="3423,-542 3793,-542 "/>
<text text-anchor="start" x="3431" y="-526.8" font-family="Times,serif" font-size="14.00">clac_cla_conviction_id PK</text>
<text text-anchor="start" x="3431" y="-511.8" font-family="Times,serif" font-size="14.00">clac_person_id → ssd_cla_episodes.clae_person_id</text>
<text text-anchor="start" x="3431" y="-496.8" font-family="Times,serif" font-size="14.00">clac_cla_conviction_date</text>
<text text-anchor="start" x="3431" y="-481.8" font-family="Times,serif" font-size="14.00">clac_cla_conviction_offence</text>
</g>
<!-- ssd_cla_convictions&#45;&gt;ssd_cla_episodes -->
<g id="edge5" class="edge">
<title>ssd_cla_convictions&#45;&gt;ssd_cla_episodes</title>
<path fill="none" stroke="black" d="M3557.02,-473.8C3519.73,-441.09 3470.58,-397.99 3440.41,-371.54"/>
<polygon fill="black" stroke="black" points="3442.63,-368.83 3432.8,-364.86 3438.01,-374.09 3442.63,-368.83"/>
<text text-anchor="middle" x="3575" y="-436.8" font-family="Times,serif" font-size="14.00">clac_person_id</text>
</g>
<!-- ssd_immigration_status -->
<g id="node6" class="node">
<title>ssd_immigration_status</title>
<polygon fill="none" stroke="black" points="1060.5,-293.5 1060.5,-399.5 1401.5,-399.5 1401.5,-293.5 1060.5,-293.5"/>
<text text-anchor="middle" x="1231" y="-384.3" font-family="Times,serif" font-size="14.00">ssd_immigration_status</text>
<polyline fill="none" stroke="black" points="1060.5,-376.5 1401.5,-376.5 "/>
<text text-anchor="start" x="1068.5" y="-361.3" font-family="Times,serif" font-size="14.00">immi_person_id → ssd_person.pers_person_id</text>
<text text-anchor="start" x="1068.5" y="-346.3" font-family="Times,serif" font-size="14.00">immi_immigration_status_id PK</text>
<text text-anchor="start" x="1068.5" y="-331.3" font-family="Times,serif" font-size="14.00">immi_immigration_status</text>
<text text-anchor="start" x="1068.5" y="-316.3" font-family="Times,serif" font-size="14.00">immi_immigration_status_start_date</text>
<text text-anchor="start" x="1068.5" y="-301.3" font-family="Times,serif" font-size="14.00">immi_immigration_status_end_date</text>
</g>
<!-- ssd_immigration_status&#45;&gt;ssd_person -->
<g id="edge6" class="edge">
<title>ssd_immigration_status&#45;&gt;ssd_person</title>
<path fill="none" stroke="black" d="M1311.34,-293.37C1364.39,-258.94 1434.22,-213.64 1490.32,-177.24"/>
<polygon fill="black" stroke="black" points="1492.36,-180.08 1498.84,-171.7 1488.55,-174.21 1492.36,-180.08"/>
<text text-anchor="middle" x="1434" y="-248.8" font-family="Times,serif" font-size="14.00">immi_person_id</text>
</g>
<!-- ssd_legal_status -->
<g id="node7" class="node">
<title>ssd_legal_status</title>
<polygon fill="none" stroke="black" points="1419.5,-293.5 1419.5,-399.5 1754.5,-399.5 1754.5,-293.5 1419.5,-293.5"/>
<text text-anchor="middle" x="1587" y="-384.3" font-family="Times,serif" font-size="14.00">ssd_legal_status</text>
<polyline fill="none" stroke="black" points="1419.5,-376.5 1754.5,-376.5 "/>
<text text-anchor="start" x="1427.5" y="-361.3" font-family="Times,serif" font-size="14.00">lega_legal_status_id PK</text>
<text text-anchor="start" x="1427.5" y="-346.3" font-family="Times,serif" font-size="14.00">lega_person_id → ssd_person.pers_person_id</text>
<text text-anchor="start" x="1427.5" y="-331.3" font-family="Times,serif" font-size="14.00">lega_legal_status</text>
<text text-anchor="start" x="1427.5" y="-316.3" font-family="Times,serif" font-size="14.00">lega_legal_status_start_date</text>
<text text-anchor="start" x="1427.5" y="-301.3" font-family="Times,serif" font-size="14.00">lega_legal_status_end_date</text>
</g>
<!-- ssd_legal_status&#45;&gt;ssd_person -->
<g id="edge7" class="edge">
<title>ssd_legal_status&#45;&gt;ssd_person</title>
<path fill="none" stroke="black" d="M1587,-293.37C1587,-276.41 1587,-256.81 1587,-236.93"/>
<polygon fill="black" stroke="black" points="1590.5,-236.84 1587,-226.84 1583.5,-236.84 1590.5,-236.84"/>
<text text-anchor="middle" x="1640" y="-248.8" font-family="Times,serif" font-size="14.00">lega_person_id</text>
</g>
<!-- ssd_send&#45;&gt;ssd_person -->
<g id="edge8" class="edge">
<title>ssd_send&#45;&gt;ssd_person</title>
<path fill="none" stroke="black" d="M295.72,-293.39C312.76,-287.58 330.17,-282.24 347,-278 763.67,-173.04 1277.09,-132.65 1488.72,-119.72"/>
<polygon fill="black" stroke="black" points="1489.1,-123.21 1498.88,-119.11 1488.68,-116.22 1489.1,-123.21"/>
<text text-anchor="middle" x="535" y="-248.8" font-family="Times,serif" font-size="14.00">send_person_id</text>
</g>
<!-- ssd_mother -->
<g id="node10" class="node">
<title>ssd_mother</title>
<polygon fill="none" stroke="black" points="1773,-301 1773,-392 2263,-392 2263,-301 1773,-301"/>
<text text-anchor="middle" x="2018" y="-376.8" font-family="Times,serif" font-size="14.00">ssd_mother</text>
<polyline fill="none" stroke="black" points="1773,-369 2263,-369 "/>
<text text-anchor="start" x="1781" y="-353.8" font-family="Times,serif" font-size="14.00">moth_table_id PK</text>
<text text-anchor="start" x="1781" y="-338.8" font-family="Times,serif" font-size="14.00">moth_person_id → ssd_person.pers_person_id (field is both PK/FK)</text>
<text text-anchor="start" x="1781" y="-323.8" font-family="Times,serif" font-size="14.00">moth_childs_person_id PK</text>
<text text-anchor="start" x="1781" y="-308.8" font-family="Times,serif" font-size="14.00">moth_childs_dob</text>
</g>
<!-- ssd_mother&#45;&gt;ssd_person -->
<g id="edge9" class="edge">
<title>ssd_mother&#45;&gt;ssd_person</title>
<path fill="none" stroke="black" d="M1934.9,-300.96C1863.21,-262.54 1759.59,-207 1684.09,-166.54"/>
<polygon fill="black" stroke="black" points="1685.5,-163.32 1675.03,-161.68 1682.19,-169.49 1685.5,-163.32"/>
<text text-anchor="middle" x="1910.5" y="-248.8" font-family="Times,serif" font-size="14.00">moth_person_id</text>
</g>
<!-- ssd_address -->
<g id="node11" class="node">
<title>ssd_address</title>
<polygon fill="none" stroke="black" points="2281,-278.5 2281,-414.5 2619,-414.5 2619,-278.5 2281,-278.5"/>
<text text-anchor="middle" x="2450" y="-399.3" font-family="Times,serif" font-size="14.00">ssd_address</text>
<polyline fill="none" stroke="black" points="2281,-391.5 2619,-391.5 "/>
<text text-anchor="start" x="2289" y="-376.3" font-family="Times,serif" font-size="14.00">addr_table_id PK</text>
<text text-anchor="start" x="2289" y="-361.3" font-family="Times,serif" font-size="14.00">addr_address_json</text>
<text text-anchor="start" x="2289" y="-346.3" font-family="Times,serif" font-size="14.00">addr_person_id → ssd_person.pers_person_id</text>
<text text-anchor="start" x="2289" y="-331.3" font-family="Times,serif" font-size="14.00">addr_address_type</text>
<text text-anchor="start" x="2289" y="-316.3" font-family="Times,serif" font-size="14.00">addr_address_start_date</text>
<text text-anchor="start" x="2289" y="-301.3" font-family="Times,serif" font-size="14.00">addr_address_end_date</text>
<text text-anchor="start" x="2289" y="-286.3" font-family="Times,serif" font-size="14.00">addr_address_postcode</text>
</g>
<!-- ssd_address&#45;&gt;ssd_person -->
<g id="edge10" class="edge">
<title>ssd_address&#45;&gt;ssd_person</title>
<path fill="none" stroke="black" d="M2280.58,-280.69C2277.71,-279.77 2274.84,-278.87 2272,-278 2065.93,-214.62 1818.74,-160.98 1684.85,-133.73"/>
<polygon fill="black" stroke="black" points="1685.51,-130.29 1675.01,-131.74 1684.12,-137.15 1685.51,-130.29"/>
<text text-anchor="middle" x="2253.5" y="-248.8" font-family="Times,serif" font-size="14.00">addr_person_id</text>
</g>
<!-- ssd_voice_of_child -->
<g id="node12" class="node">
<title>ssd_voice_of_child</title>
<polygon fill="none" stroke="black" points="2637,-278.5 2637,-414.5 2975,-414.5 2975,-278.5 2637,-278.5"/>
<text text-anchor="middle" x="2806" y="-399.3" font-family="Times,serif" font-size="14.00">ssd_voice_of_child</text>
<polyline fill="none" stroke="black" points="2637,-391.5 2975,-391.5 "/>
<text text-anchor="start" x="2645" y="-376.3" font-family="Times,serif" font-size="14.00">voch_table_id PK</text>
<text text-anchor="start" x="2645" y="-361.3" font-family="Times,serif" font-size="14.00">voch_person_id → ssd_person.pers_person_id</text>
<text text-anchor="start" x="2645" y="-346.3" font-family="Times,serif" font-size="14.00">voch_explained_worries</text>
<text text-anchor="start" x="2645" y="-331.3" font-family="Times,serif" font-size="14.00">voch_story_help_understand</text>
<text text-anchor="start" x="2645" y="-316.3" font-family="Times,serif" font-size="14.00">voch_agree_worker</text>
<text text-anchor="start" x="2645" y="-301.3" font-family="Times,serif" font-size="14.00">voch_plan_safe</text>
<text text-anchor="start" x="2645" y="-286.3" font-family="Times,serif" font-size="14.00">voch_tablet_help_explain</text>
</g>
<!-- ssd_voice_of_child&#45;&gt;ssd_person -->
<g id="edge11" class="edge">
<title>ssd_voice_of_child&#45;&gt;ssd_person</title>
<path fill="none" stroke="black" d="M2636.67,-280.37C2633.77,-279.55 2630.88,-278.76 2628,-278 2288.1,-187.9 1871.75,-140.93 1685.37,-123.11"/>
<polygon fill="black" stroke="black" points="1685.61,-119.62 1675.32,-122.16 1684.95,-126.59 1685.61,-119.62"/>
<text text-anchor="middle" x="2600.5" y="-248.8" font-family="Times,serif" font-size="14.00">voch_person_id</text>
</g>
<!-- ssd_disability -->
<g id="node13" class="node">
<title>ssd_disability</title>
<polygon fill="none" stroke="black" points="2993,-308.5 2993,-384.5 3327,-384.5 3327,-308.5 2993,-308.5"/>
<text text-anchor="middle" x="3160" y="-369.3" font-family="Times,serif" font-size="14.00">ssd_disability</text>
<polyline fill="none" stroke="black" points="2993,-361.5 3327,-361.5 "/>
<text text-anchor="start" x="3001" y="-346.3" font-family="Times,serif" font-size="14.00">disa_person_id → ssd_person.pers_person_id</text>
<text text-anchor="start" x="3001" y="-331.3" font-family="Times,serif" font-size="14.00">disa_table_id PK</text>
<text text-anchor="start" x="3001" y="-316.3" font-family="Times,serif" font-size="14.00">disa_disability_code</text>
</g>
<!-- ssd_disability&#45;&gt;ssd_person -->
<g id="edge12" class="edge">
<title>ssd_disability&#45;&gt;ssd_person</title>
<path fill="none" stroke="black" d="M3075.88,-308.33C3047.22,-297 3014.66,-285.55 2984,-278 2506.5,-160.46 1915.77,-126.67 1685.43,-117.6"/>
<polygon fill="black" stroke="black" points="1685.53,-114.1 1675.4,-117.21 1685.26,-121.1 1685.53,-114.1"/>
<text text-anchor="middle" x="2926" y="-248.8" font-family="Times,serif" font-size="14.00">disa_person_id</text>
</g>
</g>
</svg>
