<?xml version="1.0" encoding="UTF-8" standalone="no"?>
<!DOCTYPE svg PUBLIC "-//W3C//DTD SVG 1.1//EN"
 "http://www.w3.org/Graphics/SVG/1.1/DTD/svg11.dtd">
<!-- Generated by graphviz version 2.43.0 (0)
 -->
<!-- Title: G Pages: 1 -->
<svg width="2961pt" height="729pt"
 viewBox="0.00 0.00 2960.50 729.00" xmlns="http://www.w3.org/2000/svg" xmlns:xlink="http://www.w3.org/1999/xlink">
<g id="graph0" class="graph" transform="scale(1 1) rotate(0) translate(4 725)">
<title>G</title>
<polygon fill="white" stroke="transparent" points="-4,4 -4,-725 2956.5,-725 2956.5,4 -4,4"/>
<!-- ssd_assessment_factors -->
<g id="node1" class="node">
<title>ssd_assessment_factors</title>
<polygon fill="none" stroke="black" points="423,-614.5 423,-690.5 890,-690.5 890,-614.5 423,-614.5"/>
<text text-anchor="middle" x="656.5" y="-675.3" font-family="Times,serif" font-size="14.00">ssd_assessment_factors</text>
<polyline fill="none" stroke="black" points="423,-667.5 890,-667.5 "/>
<text text-anchor="start" x="431" y="-652.3" font-family="Times,serif" font-size="14.00">cinf_table_id PK</text>
<text text-anchor="start" x="431" y="-637.3" font-family="Times,serif" font-size="14.00">cinf_assessment_id → ssd_cin_assessments.cina_assessment_id</text>
<text text-anchor="start" x="431" y="-622.3" font-family="Times,serif" font-size="14.00">cinf_assessment_factors_json</text>
</g>
<!-- ssd_cin_assessments -->
<g id="node2" class="node">
<title>ssd_cin_assessments</title>
<polygon fill="none" stroke="black" points="403,-351.5 403,-532.5 910,-532.5 910,-351.5 403,-351.5"/>
<text text-anchor="middle" x="656.5" y="-517.3" font-family="Times,serif" font-size="14.00">ssd_cin_assessments</text>
<polyline fill="none" stroke="black" points="403,-509.5 910,-509.5 "/>
<text text-anchor="start" x="411" y="-494.3" font-family="Times,serif" font-size="14.00">cina_assessment_id PK</text>
<text text-anchor="start" x="411" y="-479.3" font-family="Times,serif" font-size="14.00">cina_person_id → ssd_person.pers_person_id</text>
<text text-anchor="start" x="411" y="-464.3" font-family="Times,serif" font-size="14.00">cina_referral_id → ssd_cin_episodes.cine_referral_id</text>
<text text-anchor="start" x="411" y="-449.3" font-family="Times,serif" font-size="14.00">cina_assessment_start_date</text>
<text text-anchor="start" x="411" y="-434.3" font-family="Times,serif" font-size="14.00">cina_assessment_child_seen</text>
<text text-anchor="start" x="411" y="-419.3" font-family="Times,serif" font-size="14.00">cina_assessment_auth_date</text>
<text text-anchor="start" x="411" y="-404.3" font-family="Times,serif" font-size="14.00">cina_assessment_outcome_json</text>
<text text-anchor="start" x="411" y="-389.3" font-family="Times,serif" font-size="14.00">cina_assessment_outcome_nfa</text>
<text text-anchor="start" x="411" y="-374.3" font-family="Times,serif" font-size="14.00">cina_assessment_team → ssd_department.dept_team_id</text>
<text text-anchor="start" x="411" y="-359.3" font-family="Times,serif" font-size="14.00">cina_assessment_worker_id → ssd_professionals.prof_professional_id</text>
</g>
<!-- ssd_assessment_factors&#45;&gt;ssd_cin_assessments -->
<g id="edge1" class="edge">
<title>ssd_assessment_factors&#45;&gt;ssd_cin_assessments</title>
<path fill="none" stroke="black" d="M656.5,-614.22C656.5,-594.16 656.5,-568.36 656.5,-542.91"/>
<polygon fill="black" stroke="black" points="660,-542.81 656.5,-532.81 653,-542.81 660,-542.81"/>
<text text-anchor="middle" x="725" y="-554.8" font-family="Times,serif" font-size="14.00">cinf_assessment_id</text>
</g>
<!-- ssd_cin_episodes -->
<g id="node3" class="node">
<title>ssd_cin_episodes</title>
<polygon fill="none" stroke="black" points="837,-88.5 837,-299.5 1316,-299.5 1316,-88.5 837,-88.5"/>
<text text-anchor="middle" x="1076.5" y="-284.3" font-family="Times,serif" font-size="14.00">ssd_cin_episodes</text>
<polyline fill="none" stroke="black" points="837,-276.5 1316,-276.5 "/>
<text text-anchor="start" x="845" y="-261.3" font-family="Times,serif" font-size="14.00">cine_referral_id PK</text>
<text text-anchor="start" x="845" y="-246.3" font-family="Times,serif" font-size="14.00">cine_person_id → ssd_person.pers_person_id</text>
<text text-anchor="start" x="845" y="-231.3" font-family="Times,serif" font-size="14.00">cine_referral_date</text>
<text text-anchor="start" x="845" y="-216.3" font-family="Times,serif" font-size="14.00">cine_cin_primary_need_code</text>
<text text-anchor="start" x="845" y="-201.3" font-family="Times,serif" font-size="14.00">cine_referral_source_code</text>
<text text-anchor="start" x="845" y="-186.3" font-family="Times,serif" font-size="14.00">cine_referral_source_desc</text>
<text text-anchor="start" x="845" y="-171.3" font-family="Times,serif" font-size="14.00">cine_referral_outcome_json</text>
<text text-anchor="start" x="845" y="-156.3" font-family="Times,serif" font-size="14.00">cine_referral_nfa</text>
<text text-anchor="start" x="845" y="-141.3" font-family="Times,serif" font-size="14.00">cine_close_reason</text>
<text text-anchor="start" x="845" y="-126.3" font-family="Times,serif" font-size="14.00">cine_close_date</text>
<text text-anchor="start" x="845" y="-111.3" font-family="Times,serif" font-size="14.00">cine_referral_team → ssd_department.dept_team_id</text>
<text text-anchor="start" x="845" y="-96.3" font-family="Times,serif" font-size="14.00">cine_referral_worker_id → ssd_professionals.prof_professional_id</text>
</g>
<!-- ssd_cin_assessments&#45;&gt;ssd_cin_episodes -->
<g id="edge3" class="edge">
<title>ssd_cin_assessments&#45;&gt;ssd_cin_episodes</title>
<path fill="none" stroke="black" d="M809.32,-351.49C835.24,-336.31 862.43,-320.38 889.12,-304.75"/>
<polygon fill="black" stroke="black" points="890.91,-307.76 897.77,-299.69 887.37,-301.72 890.91,-307.76"/>
<text text-anchor="middle" x="922.5" y="-321.8" font-family="Times,serif" font-size="14.00">cina_referral_id</text>
</g>
<!-- ssd_person -->
<g id="node10" class="node">
<title>ssd_person</title>
<polygon fill="none" stroke="black" points="394.5,-0.5 394.5,-36.5 490.5,-36.5 490.5,-0.5 394.5,-0.5"/>
<text text-anchor="middle" x="442.5" y="-14.8" font-family="Times,serif" font-size="14.00">ssd_person</text>
</g>
<!-- ssd_cin_assessments&#45;&gt;ssd_person -->
<g id="edge2" class="edge">
<title>ssd_cin_assessments&#45;&gt;ssd_person</title>
<path fill="none" stroke="black" d="M430.75,-351.34C413.02,-336.62 397.4,-319.61 385.5,-300 336.61,-219.45 353.46,-176.61 385.5,-88 391.5,-71.41 403.46,-56.01 414.89,-44.03"/>
<polygon fill="black" stroke="black" points="417.65,-46.22 422.25,-36.67 412.7,-41.27 417.65,-46.22"/>
<text text-anchor="middle" x="438.5" y="-190.3" font-family="Times,serif" font-size="14.00">cina_person_id</text>
</g>
<!-- ssd_department -->
<g id="node11" class="node">
<title>ssd_department</title>
<polygon fill="none" stroke="black" points="946,-0.5 946,-36.5 1077,-36.5 1077,-0.5 946,-0.5"/>
<text text-anchor="middle" x="1011.5" y="-14.8" font-family="Times,serif" font-size="14.00">ssd_department</text>
</g>
<!-- ssd_cin_assessments&#45;&gt;ssd_department -->
<g id="edge4" class="edge">
<title>ssd_cin_assessments&#45;&gt;ssd_department</title>
<path fill="none" stroke="black" d="M646.28,-351.48C637.94,-260.11 632.19,-126.41 664.5,-88 698.6,-47.46 844.35,-30.45 935.76,-23.67"/>
<polygon fill="black" stroke="black" points="936.08,-27.15 945.81,-22.95 935.58,-20.17 936.08,-27.15"/>
<text text-anchor="middle" x="746" y="-190.3" font-family="Times,serif" font-size="14.00">cina_assessment_team</text>
</g>
<!-- ssd_professionals -->
<g id="node12" class="node">
<title>ssd_professionals</title>
<polygon fill="none" stroke="black" points="1281.5,-0.5 1281.5,-36.5 1423.5,-36.5 1423.5,-0.5 1281.5,-0.5"/>
<text text-anchor="middle" x="1352.5" y="-14.8" font-family="Times,serif" font-size="14.00">ssd_professionals</text>
</g>
<!-- ssd_cin_assessments&#45;&gt;ssd_professionals -->
<g id="edge5" class="edge">
<title>ssd_cin_assessments&#45;&gt;ssd_professionals</title>
<path fill="none" stroke="black" d="M910.12,-353.11C913.59,-352.37 917.05,-351.67 920.5,-351 1009.33,-333.75 1270.82,-372.85 1324.5,-300 1339.32,-279.89 1348.31,-113.5 1351.34,-46.9"/>
<polygon fill="black" stroke="black" points="1354.85,-46.89 1351.79,-36.75 1347.85,-46.58 1354.85,-46.89"/>
<text text-anchor="middle" x="1448" y="-190.3" font-family="Times,serif" font-size="14.00">cina_assessment_worker_id</text>
</g>
<!-- ssd_cin_episodes&#45;&gt;ssd_person -->
<g id="edge6" class="edge">
<title>ssd_cin_episodes&#45;&gt;ssd_person</title>
<path fill="none" stroke="black" d="M836.66,-92.3C831.92,-90.81 827.19,-89.38 822.5,-88 710.99,-55.31 576.26,-35.48 500.88,-26.09"/>
<polygon fill="black" stroke="black" points="501,-22.58 490.65,-24.83 500.15,-29.52 501,-22.58"/>
<text text-anchor="middle" x="804.5" y="-58.8" font-family="Times,serif" font-size="14.00">cine_person_id</text>
</g>
<!-- ssd_cin_episodes&#45;&gt;ssd_department -->
<g id="edge7" class="edge">
<title>ssd_cin_episodes&#45;&gt;ssd_department</title>
<path fill="none" stroke="black" d="M1018.09,-88.23C1015.94,-82.17 1014.05,-76.06 1012.5,-70 1010.61,-62.61 1009.89,-54.41 1009.77,-46.8"/>
<polygon fill="black" stroke="black" points="1013.27,-46.64 1009.92,-36.59 1006.27,-46.54 1013.27,-46.64"/>
<text text-anchor="middle" x="1079.5" y="-58.8" font-family="Times,serif" font-size="14.00">cine_referral_team</text>
</g>
<!-- ssd_cin_episodes&#45;&gt;ssd_professionals -->
<g id="edge8" class="edge">
<title>ssd_cin_episodes&#45;&gt;ssd_professionals</title>
<path fill="none" stroke="black" d="M1133.39,-88.27C1143.97,-75.56 1156.01,-63.93 1169.5,-55 1199.22,-35.33 1237.22,-26.01 1270.89,-21.78"/>
<polygon fill="black" stroke="black" points="1271.64,-25.22 1281.19,-20.63 1270.86,-18.27 1271.64,-25.22"/>
<text text-anchor="middle" x="1254" y="-58.8" font-family="Times,serif" font-size="14.00">cine_referral_worker_id</text>
</g>
<!-- ssd_cla_visits -->
<g id="node4" class="node">
<title>ssd_cla_visits</title>
<polygon fill="none" stroke="black" points="1706,-592 1706,-713 2077,-713 2077,-592 1706,-592"/>
<text text-anchor="middle" x="1891.5" y="-697.8" font-family="Times,serif" font-size="14.00">ssd_cla_visits</text>
<polyline fill="none" stroke="black" points="1706,-690 2077,-690 "/>
<text text-anchor="start" x="1714" y="-674.8" font-family="Times,serif" font-size="14.00">clav_cla_visit_id PK</text>
<text text-anchor="start" x="1714" y="-659.8" font-family="Times,serif" font-size="14.00">clav_cla_id</text>
<text text-anchor="start" x="1714" y="-644.8" font-family="Times,serif" font-size="14.00">clav_person_id → ssd_cla_episodes.clae_person_id</text>
<text text-anchor="start" x="1714" y="-629.8" font-family="Times,serif" font-size="14.00">clav_cla_visit_date</text>
<text text-anchor="start" x="1714" y="-614.8" font-family="Times,serif" font-size="14.00">clav_cla_visit_seen</text>
<text text-anchor="start" x="1714" y="-599.8" font-family="Times,serif" font-size="14.00">clav_cla_visit_seen_alone</text>
</g>
<!-- ssd_cla_episodes -->
<g id="node13" class="node">
<title>ssd_cla_episodes</title>
<polygon fill="none" stroke="black" points="1823,-424 1823,-460 1960,-460 1960,-424 1823,-424"/>
<text text-anchor="middle" x="1891.5" y="-438.3" font-family="Times,serif" font-size="14.00">ssd_cla_episodes</text>
</g>
<!-- ssd_cla_visits&#45;&gt;ssd_cla_episodes -->
<g id="edge9" class="edge">
<title>ssd_cla_visits&#45;&gt;ssd_cla_episodes</title>
<path fill="none" stroke="black" d="M1891.5,-591.75C1891.5,-551.88 1891.5,-501.33 1891.5,-470.61"/>
<polygon fill="black" stroke="black" points="1895,-470.24 1891.5,-460.24 1888,-470.24 1895,-470.24"/>
<text text-anchor="middle" x="1944" y="-554.8" font-family="Times,serif" font-size="14.00">clav_person_id</text>
</g>
<!-- ssd_cin_visits -->
<g id="node5" class="node">
<title>ssd_cin_visits</title>
<polygon fill="none" stroke="black" points="1432,-381.5 1432,-502.5 1805,-502.5 1805,-381.5 1432,-381.5"/>
<text text-anchor="middle" x="1618.5" y="-487.3" font-family="Times,serif" font-size="14.00">ssd_cin_visits</text>
<polyline fill="none" stroke="black" points="1432,-479.5 1805,-479.5 "/>
<text text-anchor="start" x="1440" y="-464.3" font-family="Times,serif" font-size="14.00">cinv_cin_visit_id PK</text>
<text text-anchor="start" x="1440" y="-449.3" font-family="Times,serif" font-size="14.00">cinv_person_id → ssd_cin_episodes.cine_person_id</text>
<text text-anchor="start" x="1440" y="-434.3" font-family="Times,serif" font-size="14.00">cinv_cin_visit_date</text>
<text text-anchor="start" x="1440" y="-419.3" font-family="Times,serif" font-size="14.00">cinv_cin_visit_seen</text>
<text text-anchor="start" x="1440" y="-404.3" font-family="Times,serif" font-size="14.00">cinv_cin_visit_seen_alone</text>
<text text-anchor="start" x="1440" y="-389.3" font-family="Times,serif" font-size="14.00">cinv_cin_visit_bedroom</text>
</g>
<!-- ssd_cin_visits&#45;&gt;ssd_cin_episodes -->
<g id="edge10" class="edge">
<title>ssd_cin_visits&#45;&gt;ssd_cin_episodes</title>
<path fill="none" stroke="black" d="M1488.19,-381.38C1465.95,-371.23 1443.07,-360.8 1421.5,-351 1387.85,-335.71 1352.34,-319.61 1317.41,-303.79"/>
<polygon fill="black" stroke="black" points="1318.62,-300.49 1308.06,-299.56 1315.73,-306.87 1318.62,-300.49"/>
<text text-anchor="middle" x="1428.5" y="-321.8" font-family="Times,serif" font-size="14.00">cinv_person_id</text>
</g>
<!-- ssd_contacts -->
<g id="node6" class="node">
<title>ssd_contacts</title>
<polygon fill="none" stroke="black" points="0,-133.5 0,-254.5 335,-254.5 335,-133.5 0,-133.5"/>
<text text-anchor="middle" x="167.5" y="-239.3" font-family="Times,serif" font-size="14.00">ssd_contacts</text>
<polyline fill="none" stroke="black" points="0,-231.5 335,-231.5 "/>
<text text-anchor="start" x="8" y="-216.3" font-family="Times,serif" font-size="14.00">cont_contact_id PK</text>
<text text-anchor="start" x="8" y="-201.3" font-family="Times,serif" font-size="14.00">cont_person_id → ssd_person.pers_person_id</text>
<text text-anchor="start" x="8" y="-186.3" font-family="Times,serif" font-size="14.00">cont_contact_date</text>
<text text-anchor="start" x="8" y="-171.3" font-family="Times,serif" font-size="14.00">cont_contact_source_code</text>
<text text-anchor="start" x="8" y="-156.3" font-family="Times,serif" font-size="14.00">cont_contact_source_desc</text>
<text text-anchor="start" x="8" y="-141.3" font-family="Times,serif" font-size="14.00">cont_contact_outcome_json</text>
</g>
<!-- ssd_contacts&#45;&gt;ssd_person -->
<g id="edge11" class="edge">
<title>ssd_contacts&#45;&gt;ssd_person</title>
<path fill="none" stroke="black" d="M189.71,-133.37C203.13,-105.37 223.04,-74.03 250.5,-55 271.76,-40.26 335.93,-30.48 384.28,-24.98"/>
<polygon fill="black" stroke="black" points="384.78,-28.45 394.33,-23.87 384.01,-21.49 384.78,-28.45"/>
<text text-anchor="middle" x="304" y="-58.8" font-family="Times,serif" font-size="14.00">cont_person_id</text>
</g>
<!-- ssd_sen_need -->
<g id="node7" class="node">
<title>ssd_sen_need</title>
<polygon fill="none" stroke="black" points="2095,-607 2095,-698 2584,-698 2584,-607 2095,-607"/>
<text text-anchor="middle" x="2339.5" y="-682.8" font-family="Times,serif" font-size="14.00">ssd_sen_need</text>
<polyline fill="none" stroke="black" points="2095,-675 2584,-675 "/>
<text text-anchor="start" x="2103" y="-659.8" font-family="Times,serif" font-size="14.00">senn_table_id PK</text>
<text text-anchor="start" x="2103" y="-644.8" font-family="Times,serif" font-size="14.00">senn_active_ehcp_id → ssd_ehcp_active_plans.ehcp_active_ehcp_id</text>
<text text-anchor="start" x="2103" y="-629.8" font-family="Times,serif" font-size="14.00">senn_active_ehcp_need_type</text>
<text text-anchor="start" x="2103" y="-614.8" font-family="Times,serif" font-size="14.00">senn_active_ehcp_need_rank</text>
</g>
<!-- ssd_ehcp_active_plans -->
<g id="node14" class="node">
<title>ssd_ehcp_active_plans</title>
<polygon fill="none" stroke="black" points="2251.5,-424 2251.5,-460 2427.5,-460 2427.5,-424 2251.5,-424"/>
<text text-anchor="middle" x="2339.5" y="-438.3" font-family="Times,serif" font-size="14.00">ssd_ehcp_active_plans</text>
</g>
<!-- ssd_sen_need&#45;&gt;ssd_ehcp_active_plans -->
<g id="edge12" class="edge">
<title>ssd_sen_need&#45;&gt;ssd_ehcp_active_plans</title>
<path fill="none" stroke="black" d="M2339.5,-606.77C2339.5,-565.42 2339.5,-505.27 2339.5,-470.55"/>
<polygon fill="black" stroke="black" points="2343,-470.22 2339.5,-460.22 2336,-470.22 2343,-470.22"/>
<text text-anchor="middle" x="2412" y="-554.8" font-family="Times,serif" font-size="14.00">senn_active_ehcp_id</text>
</g>
<!-- ssd_cp_visits -->
<g id="node8" class="node">
<title>ssd_cp_visits</title>
<polygon fill="none" stroke="black" points="2602.5,-584.5 2602.5,-720.5 2952.5,-720.5 2952.5,-584.5 2602.5,-584.5"/>
<text text-anchor="middle" x="2777.5" y="-705.3" font-family="Times,serif" font-size="14.00">ssd_cp_visits</text>
<polyline fill="none" stroke="black" points="2602.5,-697.5 2952.5,-697.5 "/>
<text text-anchor="start" x="2610.5" y="-682.3" font-family="Times,serif" font-size="14.00">cppv_cp_visit_id PK</text>
<text text-anchor="start" x="2610.5" y="-667.3" font-family="Times,serif" font-size="14.00">cppv_person_id → ssd_cp_plans.cppl_person_id</text>
<text text-anchor="start" x="2610.5" y="-652.3" font-family="Times,serif" font-size="14.00">cppv_cp_plan_id</text>
<text text-anchor="start" x="2610.5" y="-637.3" font-family="Times,serif" font-size="14.00">cppv_cp_visit_date</text>
<text text-anchor="start" x="2610.5" y="-622.3" font-family="Times,serif" font-size="14.00">cppv_cp_visit_seen</text>
<text text-anchor="start" x="2610.5" y="-607.3" font-family="Times,serif" font-size="14.00">cppv_cp_visit_seen_alone</text>
<text text-anchor="start" x="2610.5" y="-592.3" font-family="Times,serif" font-size="14.00">cppv_cp_visit_bedroom</text>
</g>
<!-- ssd_cp_plans -->
<g id="node15" class="node">
<title>ssd_cp_plans</title>
<polygon fill="none" stroke="black" points="2723,-424 2723,-460 2832,-460 2832,-424 2723,-424"/>
<text text-anchor="middle" x="2777.5" y="-438.3" font-family="Times,serif" font-size="14.00">ssd_cp_plans</text>
</g>
<!-- ssd_cp_visits&#45;&gt;ssd_cp_plans -->
<g id="edge13" class="edge">
<title>ssd_cp_visits&#45;&gt;ssd_cp_plans</title>
<path fill="none" stroke="black" d="M2777.5,-584.38C2777.5,-545.75 2777.5,-499.29 2777.5,-470.44"/>
<polygon fill="black" stroke="black" points="2781,-470.3 2777.5,-460.3 2774,-470.3 2781,-470.3"/>
<text text-anchor="middle" x="2832.5" y="-554.8" font-family="Times,serif" font-size="14.00">cppv_person_id</text>
</g>
<!-- ssd_cin_plans -->
<g id="node9" class="node">
<title>ssd_cin_plans</title>
<polygon fill="none" stroke="black" points="930,-374 930,-510 1413,-510 1413,-374 930,-374"/>
<text text-anchor="middle" x="1171.5" y="-494.8" font-family="Times,serif" font-size="14.00">ssd_cin_plans</text>
<polyline fill="none" stroke="black" points="930,-487 1413,-487 "/>
<text text-anchor="start" x="938" y="-471.8" font-family="Times,serif" font-size="14.00">cinp_cin_plan_id PK</text>
<text text-anchor="start" x="938" y="-456.8" font-family="Times,serif" font-size="14.00">cinp_referral_id → ssd_cin_episodes.cine_referral_id</text>
<text text-anchor="start" x="938" y="-441.8" font-family="Times,serif" font-size="14.00">cinp_person_id → ssd_person.pers_person_id</text>
<text text-anchor="start" x="938" y="-426.8" font-family="Times,serif" font-size="14.00">cinp_cin_plan_start_date</text>
<text text-anchor="start" x="938" y="-411.8" font-family="Times,serif" font-size="14.00">cinp_cin_plan_end_date</text>
<text text-anchor="start" x="938" y="-396.8" font-family="Times,serif" font-size="14.00">cinp_cin_plan_team → ssd_department.dept_team_id</text>
<text text-anchor="start" x="938" y="-381.8" font-family="Times,serif" font-size="14.00">cinp_cin_plan_worker_id → ssd_professionals.prof_professional_id</text>
</g>
<!-- ssd_cin_plans&#45;&gt;ssd_cin_episodes -->
<g id="edge14" class="edge">
<title>ssd_cin_plans&#45;&gt;ssd_cin_episodes</title>
<path fill="none" stroke="black" d="M1145.54,-373.78C1137.8,-353.74 1129.09,-331.19 1120.54,-309.03"/>
<polygon fill="black" stroke="black" points="1123.75,-307.64 1116.88,-299.57 1117.22,-310.16 1123.75,-307.64"/>
<text text-anchor="middle" x="1186.5" y="-321.8" font-family="Times,serif" font-size="14.00">cinp_referral_id</text>
</g>
<!-- ssd_cin_plans&#45;&gt;ssd_person -->
<g id="edge15" class="edge">
<title>ssd_cin_plans&#45;&gt;ssd_person</title>
<path fill="none" stroke="black" d="M998.07,-373.9C971.68,-365.27 944.56,-357.27 918.5,-351 833.95,-330.65 593.55,-359.9 530.5,-300 461.04,-234.01 528.93,-176.19 491.5,-88 484.86,-72.36 474.16,-56.81 464.44,-44.48"/>
<polygon fill="black" stroke="black" points="466.97,-42.05 457.94,-36.51 461.54,-46.47 466.97,-42.05"/>
<text text-anchor="middle" x="583.5" y="-190.3" font-family="Times,serif" font-size="14.00">cinp_person_id</text>
</g>
<!-- ssd_cin_plans&#45;&gt;ssd_department -->
<g id="edge16" class="edge">
<title>ssd_cin_plans&#45;&gt;ssd_department</title>
<path fill="none" stroke="black" d="M1356.55,-373.97C1453.19,-338.75 1551.86,-302.36 1553.5,-300 1607.37,-222.7 1614.76,-159.59 1553.5,-88 1538.49,-70.46 1232.8,-39.98 1087.26,-26.38"/>
<polygon fill="black" stroke="black" points="1087.35,-22.88 1077.07,-25.44 1086.7,-29.85 1087.35,-22.88"/>
<text text-anchor="middle" x="1667" y="-190.3" font-family="Times,serif" font-size="14.00">cinp_cin_plan_team</text>
</g>
<!-- ssd_cin_plans&#45;&gt;ssd_professionals -->
<g id="edge17" class="edge">
<title>ssd_cin_plans&#45;&gt;ssd_professionals</title>
<path fill="none" stroke="black" d="M1345.41,-373.99C1371.03,-365.48 1397.28,-357.5 1422.5,-351 1491.38,-333.25 1692.38,-354.16 1738.5,-300 1799.59,-228.26 1799.03,-160.21 1738.5,-88 1700.41,-42.55 1535.31,-27.24 1433.77,-22.09"/>
<polygon fill="black" stroke="black" points="1433.7,-18.58 1423.54,-21.6 1433.36,-25.57 1433.7,-18.58"/>
<text text-anchor="middle" x="1871" y="-190.3" font-family="Times,serif" font-size="14.00">cinp_cin_plan_worker_id</text>
</g>
</g>
</svg>
