<?xml version="1.0" encoding="UTF-8" standalone="no"?>
<!DOCTYPE svg PUBLIC "-//W3C//DTD SVG 1.1//EN"
 "http://www.w3.org/Graphics/SVG/1.1/DTD/svg11.dtd">
<!-- Generated by graphviz version 2.43.0 (0)
 -->
<!-- Title: G Pages: 1 -->
<svg width="2097pt" height="1202pt"
 viewBox="0.00 0.00 2097.00 1202.00" xmlns="http://www.w3.org/2000/svg" xmlns:xlink="http://www.w3.org/1999/xlink">
<g id="graph0" class="graph" transform="scale(1 1) rotate(0) translate(4 1198)">
<title>G</title>
<polygon fill="white" stroke="transparent" points="-4,4 -4,-1198 2093,-1198 2093,4 -4,4"/>
<!-- ssd_initial_cp_conference -->
<g id="node1" class="node">
<title>ssd_initial_cp_conference</title>
<polygon fill="none" stroke="black" points="563,-531.5 563,-757.5 1015,-757.5 1015,-531.5 563,-531.5"/>
<text text-anchor="middle" x="789" y="-742.3" font-family="Times,serif" font-size="14.00">ssd_initial_cp_conference</text>
<polyline fill="none" stroke="black" points="563,-734.5 1015,-734.5 "/>
<text text-anchor="start" x="571" y="-719.3" font-family="Times,serif" font-size="14.00">icpc_icpc_id PK</text>
<text text-anchor="start" x="571" y="-704.3" font-family="Times,serif" font-size="14.00">icpc_icpc_meeting_id</text>
<text text-anchor="start" x="571" y="-689.3" font-family="Times,serif" font-size="14.00">icpc_s47_enquiry_id → ssd_s47_enquiry.s47e_s47_enquiry_id</text>
<text text-anchor="start" x="571" y="-674.3" font-family="Times,serif" font-size="14.00">icpc_person_id → ssd_person.pers_person_id</text>
<text text-anchor="start" x="571" y="-659.3" font-family="Times,serif" font-size="14.00">icpc_cp_plan_id</text>
<text text-anchor="start" x="571" y="-644.3" font-family="Times,serif" font-size="14.00">icpc_referral_id → ssd_cin_episodes.cine_referral_id</text>
<text text-anchor="start" x="571" y="-629.3" font-family="Times,serif" font-size="14.00">icpc_icpc_transfer_in</text>
<text text-anchor="start" x="571" y="-614.3" font-family="Times,serif" font-size="14.00">icpc_icpc_target_date</text>
<text text-anchor="start" x="571" y="-599.3" font-family="Times,serif" font-size="14.00">icpc_icpc_date</text>
<text text-anchor="start" x="571" y="-584.3" font-family="Times,serif" font-size="14.00">icpc_icpc_outcome_cp_flag</text>
<text text-anchor="start" x="571" y="-569.3" font-family="Times,serif" font-size="14.00">icpc_icpc_outcome_json</text>
<text text-anchor="start" x="571" y="-554.3" font-family="Times,serif" font-size="14.00">icpc_icpc_team → ssd_department.dept_team_id</text>
<text text-anchor="start" x="571" y="-539.3" font-family="Times,serif" font-size="14.00">icpc_icpc_worker_id → ssd_professionals.prof_professional_id</text>
</g>
<!-- ssd_s47_enquiry -->
<g id="node2" class="node">
<title>ssd_s47_enquiry</title>
<polygon fill="none" stroke="black" points="715.5,-201 715.5,-367 1274.5,-367 1274.5,-201 715.5,-201"/>
<text text-anchor="middle" x="995" y="-351.8" font-family="Times,serif" font-size="14.00">ssd_s47_enquiry</text>
<polyline fill="none" stroke="black" points="715.5,-344 1274.5,-344 "/>
<text text-anchor="start" x="723.5" y="-328.8" font-family="Times,serif" font-size="14.00">s47e_s47_enquiry_id PK</text>
<text text-anchor="start" x="723.5" y="-313.8" font-family="Times,serif" font-size="14.00">s47e_referral_id → ssd_cin_episodes.cine_referral_id</text>
<text text-anchor="start" x="723.5" y="-298.8" font-family="Times,serif" font-size="14.00">s47e_person_id → ssd_person.pers_person_id</text>
<text text-anchor="start" x="723.5" y="-283.8" font-family="Times,serif" font-size="14.00">s47e_s47_start_date</text>
<text text-anchor="start" x="723.5" y="-268.8" font-family="Times,serif" font-size="14.00">s47e_s47_end_date</text>
<text text-anchor="start" x="723.5" y="-253.8" font-family="Times,serif" font-size="14.00">s47e_s47_nfa</text>
<text text-anchor="start" x="723.5" y="-238.8" font-family="Times,serif" font-size="14.00">s47e_s47_outcome_json</text>
<text text-anchor="start" x="723.5" y="-223.8" font-family="Times,serif" font-size="14.00">s47e_s47_completed_by_worker_id → ssd_professionals.prof_professional_id</text>
<text text-anchor="start" x="723.5" y="-208.8" font-family="Times,serif" font-size="14.00">s47e_s47_completed_by_team → ssd_department.dept_team_id</text>
</g>
<!-- ssd_initial_cp_conference&#45;&gt;ssd_s47_enquiry -->
<g id="edge1" class="edge">
<title>ssd_initial_cp_conference&#45;&gt;ssd_s47_enquiry</title>
<path fill="none" stroke="black" d="M853.61,-531.05C882.33,-481.08 915.69,-423.03 942.79,-375.86"/>
<polygon fill="black" stroke="black" points="945.83,-377.6 947.77,-367.19 939.76,-374.11 945.83,-377.6"/>
<text text-anchor="middle" x="939.5" y="-501.8" font-family="Times,serif" font-size="14.00">icpc_s47_enquiry_id</text>
</g>
<!-- ssd_person -->
<g id="node10" class="node">
<title>ssd_person</title>
<polygon fill="none" stroke="black" points="378,-0.5 378,-36.5 474,-36.5 474,-0.5 378,-0.5"/>
<text text-anchor="middle" x="426" y="-14.8" font-family="Times,serif" font-size="14.00">ssd_person</text>
</g>
<!-- ssd_initial_cp_conference&#45;&gt;ssd_person -->
<g id="edge2" class="edge">
<title>ssd_initial_cp_conference&#45;&gt;ssd_person</title>
<path fill="none" stroke="black" d="M562.67,-542.94C508.22,-516.67 463.21,-492.28 455,-480 362.1,-341.02 401.39,-122.62 419.09,-46.64"/>
<polygon fill="black" stroke="black" points="422.5,-47.42 421.42,-36.88 415.69,-45.79 422.5,-47.42"/>
<text text-anchor="middle" x="507.5" y="-280.3" font-family="Times,serif" font-size="14.00">icpc_person_id</text>
</g>
<!-- ssd_cin_episodes -->
<g id="node11" class="node">
<title>ssd_cin_episodes</title>
<polygon fill="none" stroke="black" points="1674.5,-0.5 1674.5,-36.5 1811.5,-36.5 1811.5,-0.5 1674.5,-0.5"/>
<text text-anchor="middle" x="1743" y="-14.8" font-family="Times,serif" font-size="14.00">ssd_cin_episodes</text>
</g>
<!-- ssd_initial_cp_conference&#45;&gt;ssd_cin_episodes -->
<g id="edge3" class="edge">
<title>ssd_initial_cp_conference&#45;&gt;ssd_cin_episodes</title>
<path fill="none" stroke="black" d="M1015.17,-627.11C1332.87,-601.75 1879.4,-548.68 1939,-480 1996.1,-414.21 1988.34,-159.79 1939,-88 1912.91,-50.05 1864.05,-32.92 1821.64,-25.28"/>
<polygon fill="black" stroke="black" points="1822.02,-21.79 1811.58,-23.62 1820.88,-28.7 1822.02,-21.79"/>
<text text-anchor="middle" x="2033.5" y="-280.3" font-family="Times,serif" font-size="14.00">icpc_referral_id</text>
</g>
<!-- ssd_department -->
<g id="node12" class="node">
<title>ssd_department</title>
<polygon fill="none" stroke="black" points="607.5,-0.5 607.5,-36.5 738.5,-36.5 738.5,-0.5 607.5,-0.5"/>
<text text-anchor="middle" x="673" y="-14.8" font-family="Times,serif" font-size="14.00">ssd_department</text>
</g>
<!-- ssd_initial_cp_conference&#45;&gt;ssd_department -->
<g id="edge4" class="edge">
<title>ssd_initial_cp_conference&#45;&gt;ssd_department</title>
<path fill="none" stroke="black" d="M632.7,-531.43C619.2,-515.68 607.48,-498.49 599,-480 526.35,-321.65 585.91,-261.73 599,-88 600.11,-73.21 595.34,-67.05 604,-55 607.47,-50.16 611.81,-45.94 616.6,-42.26"/>
<polygon fill="black" stroke="black" points="618.69,-45.07 625.02,-36.57 614.77,-39.27 618.69,-45.07"/>
<text text-anchor="middle" x="652.5" y="-280.3" font-family="Times,serif" font-size="14.00">icpc_icpc_team</text>
</g>
<!-- ssd_professionals -->
<g id="node13" class="node">
<title>ssd_professionals</title>
<polygon fill="none" stroke="black" points="1123,-0.5 1123,-36.5 1265,-36.5 1265,-0.5 1123,-0.5"/>
<text text-anchor="middle" x="1194" y="-14.8" font-family="Times,serif" font-size="14.00">ssd_professionals</text>
</g>
<!-- ssd_initial_cp_conference&#45;&gt;ssd_professionals -->
<g id="edge5" class="edge">
<title>ssd_initial_cp_conference&#45;&gt;ssd_professionals</title>
<path fill="none" stroke="black" d="M1015.03,-617.93C1110.24,-595.98 1214.8,-555.3 1284,-480 1349.58,-408.64 1443.85,-129.62 1382,-55 1368.16,-38.3 1319.5,-29.4 1275.15,-24.69"/>
<polygon fill="black" stroke="black" points="1275.48,-21.2 1265.18,-23.69 1274.78,-28.17 1275.48,-21.2"/>
<text text-anchor="middle" x="1473" y="-280.3" font-family="Times,serif" font-size="14.00">icpc_icpc_worker_id</text>
</g>
<!-- ssd_s47_enquiry&#45;&gt;ssd_person -->
<g id="edge7" class="edge">
<title>ssd_s47_enquiry&#45;&gt;ssd_person</title>
<path fill="none" stroke="black" d="M891.84,-200.97C837.75,-161.6 768.78,-116.83 701,-88 667.06,-73.57 655.85,-78.65 620,-70 574.19,-58.95 522.57,-45.46 484.1,-35.21"/>
<polygon fill="black" stroke="black" points="484.68,-31.74 474.11,-32.54 482.87,-38.5 484.68,-31.74"/>
<text text-anchor="middle" x="675" y="-58.8" font-family="Times,serif" font-size="14.00">s47e_person_id</text>
</g>
<!-- ssd_s47_enquiry&#45;&gt;ssd_cin_episodes -->
<g id="edge6" class="edge">
<title>ssd_s47_enquiry&#45;&gt;ssd_cin_episodes</title>
<path fill="none" stroke="black" d="M1130.66,-200.93C1201.08,-161.55 1289.8,-116.78 1374,-88 1471.21,-54.77 1588.65,-36.49 1664.53,-27.35"/>
<polygon fill="black" stroke="black" points="1664.97,-30.82 1674.49,-26.17 1664.15,-23.87 1664.97,-30.82"/>
<text text-anchor="middle" x="1551" y="-58.8" font-family="Times,serif" font-size="14.00">s47e_referral_id</text>
</g>
<!-- ssd_s47_enquiry&#45;&gt;ssd_department -->
<g id="edge9" class="edge">
<title>ssd_s47_enquiry&#45;&gt;ssd_department</title>
<path fill="none" stroke="black" d="M909.38,-200.8C860.03,-155.35 795.71,-99.29 734,-55 727.63,-50.43 720.63,-45.92 713.72,-41.74"/>
<polygon fill="black" stroke="black" points="715.46,-38.7 705.07,-36.63 711.9,-44.73 715.46,-38.7"/>
<text text-anchor="middle" x="857" y="-58.8" font-family="Times,serif" font-size="14.00">s47e_s47_completed_by_team</text>
</g>
<!-- ssd_s47_enquiry&#45;&gt;ssd_professionals -->
<g id="edge8" class="edge">
<title>ssd_s47_enquiry&#45;&gt;ssd_professionals</title>
<path fill="none" stroke="black" d="M970.59,-200.88C961.73,-153.07 960.82,-94.59 994,-55 1009.31,-36.74 1064.18,-27.86 1112.59,-23.56"/>
<polygon fill="black" stroke="black" points="1113.13,-27.02 1122.81,-22.7 1112.55,-20.05 1113.13,-27.02"/>
<text text-anchor="middle" x="1118.5" y="-58.8" font-family="Times,serif" font-size="14.00">s47e_s47_completed_by_worker_id</text>
</g>
<!-- ssd_cla_reviews -->
<g id="node3" class="node">
<title>ssd_cla_reviews</title>
<polygon fill="none" stroke="black" points="811,-1050 811,-1171 1123,-1171 1123,-1050 811,-1050"/>
<text text-anchor="middle" x="967" y="-1155.8" font-family="Times,serif" font-size="14.00">ssd_cla_reviews</text>
<polyline fill="none" stroke="black" points="811,-1148 1123,-1148 "/>
<text text-anchor="start" x="819" y="-1132.8" font-family="Times,serif" font-size="14.00">clar_cla_review_id PK</text>
<text text-anchor="start" x="819" y="-1117.8" font-family="Times,serif" font-size="14.00">clar_cla_id → ssd_cla_episodes.clae_cla_id</text>
<text text-anchor="start" x="819" y="-1102.8" font-family="Times,serif" font-size="14.00">clar_cla_review_due_date</text>
<text text-anchor="start" x="819" y="-1087.8" font-family="Times,serif" font-size="14.00">clar_cla_review_date</text>
<text text-anchor="start" x="819" y="-1072.8" font-family="Times,serif" font-size="14.00">clar_cla_review_cancelled</text>
<text text-anchor="start" x="819" y="-1057.8" font-family="Times,serif" font-size="14.00">clar_cla_review_participation</text>
</g>
<!-- ssd_cla_episodes -->
<g id="node14" class="node">
<title>ssd_cla_episodes</title>
<polygon fill="none" stroke="black" points="1078.5,-874.5 1078.5,-910.5 1215.5,-910.5 1215.5,-874.5 1078.5,-874.5"/>
<text text-anchor="middle" x="1147" y="-888.8" font-family="Times,serif" font-size="14.00">ssd_cla_episodes</text>
</g>
<!-- ssd_cla_reviews&#45;&gt;ssd_cla_episodes -->
<g id="edge10" class="edge">
<title>ssd_cla_reviews&#45;&gt;ssd_cla_episodes</title>
<path fill="none" stroke="black" d="M1016.66,-1049.91C1052.58,-1006.8 1099.3,-950.74 1125.94,-918.77"/>
<polygon fill="black" stroke="black" points="1128.87,-920.73 1132.58,-910.81 1123.49,-916.25 1128.87,-920.73"/>
<text text-anchor="middle" x="1100.5" y="-997.8" font-family="Times,serif" font-size="14.00">clar_cla_id</text>
</g>
<!-- ssd_pre_proceedings -->
<g id="node4" class="node">
<title>ssd_pre_proceedings</title>
<polygon fill="none" stroke="black" points="0,-88.5 0,-479.5 338,-479.5 338,-88.5 0,-88.5"/>
<text text-anchor="middle" x="169" y="-464.3" font-family="Times,serif" font-size="14.00">ssd_pre_proceedings</text>
<polyline fill="none" stroke="black" points="0,-456.5 338,-456.5 "/>
<text text-anchor="start" x="8" y="-441.3" font-family="Times,serif" font-size="14.00">prep_table_id PK</text>
<text text-anchor="start" x="8" y="-426.3" font-family="Times,serif" font-size="14.00">prep_person_id → ssd_person.pers_person_id</text>
<text text-anchor="start" x="8" y="-411.3" font-family="Times,serif" font-size="14.00">prep_plo_family_id PK</text>
<text text-anchor="start" x="8" y="-396.3" font-family="Times,serif" font-size="14.00">prep_pre_pro_decision_date</text>
<text text-anchor="start" x="8" y="-381.3" font-family="Times,serif" font-size="14.00">prep_initial_pre_pro_meeting_date</text>
<text text-anchor="start" x="8" y="-366.3" font-family="Times,serif" font-size="14.00">prep_pre_pro_outcome</text>
<text text-anchor="start" x="8" y="-351.3" font-family="Times,serif" font-size="14.00">prep_agree_stepdown_issue_date</text>
<text text-anchor="start" x="8" y="-336.3" font-family="Times,serif" font-size="14.00">prep_cp_plans_referral_period</text>
<text text-anchor="start" x="8" y="-321.3" font-family="Times,serif" font-size="14.00">prep_legal_gateway_outcome</text>
<text text-anchor="start" x="8" y="-306.3" font-family="Times,serif" font-size="14.00">prep_prev_pre_proc_child</text>
<text text-anchor="start" x="8" y="-291.3" font-family="Times,serif" font-size="14.00">prep_prev_care_proc_child</text>
<text text-anchor="start" x="8" y="-276.3" font-family="Times,serif" font-size="14.00">prep_pre_pro_letter_date</text>
<text text-anchor="start" x="8" y="-261.3" font-family="Times,serif" font-size="14.00">prep_care_pro_letter_date</text>
<text text-anchor="start" x="8" y="-246.3" font-family="Times,serif" font-size="14.00">prep_pre_pro_meetings_num</text>
<text text-anchor="start" x="8" y="-231.3" font-family="Times,serif" font-size="14.00">prep_pre_pro_parents_legal_rep</text>
<text text-anchor="start" x="8" y="-216.3" font-family="Times,serif" font-size="14.00">prep_parents_legal_rep_point_of_issue</text>
<text text-anchor="start" x="8" y="-201.3" font-family="Times,serif" font-size="14.00">prep_court_reference</text>
<text text-anchor="start" x="8" y="-186.3" font-family="Times,serif" font-size="14.00">prep_care_proc_court_hearings</text>
<text text-anchor="start" x="8" y="-171.3" font-family="Times,serif" font-size="14.00">prep_care_proc_short_notice</text>
<text text-anchor="start" x="8" y="-156.3" font-family="Times,serif" font-size="14.00">prep_proc_short_notice_reason</text>
<text text-anchor="start" x="8" y="-141.3" font-family="Times,serif" font-size="14.00">prep_la_inital_plan_approved</text>
<text text-anchor="start" x="8" y="-126.3" font-family="Times,serif" font-size="14.00">prep_la_initial_care_plan</text>
<text text-anchor="start" x="8" y="-111.3" font-family="Times,serif" font-size="14.00">prep_la_final_plan_approved</text>
<text text-anchor="start" x="8" y="-96.3" font-family="Times,serif" font-size="14.00">prep_la_final_care_plan</text>
</g>
<!-- ssd_pre_proceedings&#45;&gt;ssd_person -->
<g id="edge11" class="edge">
<title>ssd_pre_proceedings&#45;&gt;ssd_person</title>
<path fill="none" stroke="black" d="M214.67,-88.46C222.65,-76.09 232.01,-64.72 243,-55 261.24,-38.87 321.25,-29.44 367.63,-24.4"/>
<polygon fill="black" stroke="black" points="368.02,-27.88 377.6,-23.36 367.29,-20.92 368.02,-27.88"/>
<text text-anchor="middle" x="297.5" y="-58.8" font-family="Times,serif" font-size="14.00">prep_person_id</text>
</g>
<!-- ssd_cla_visits -->
<g id="node5" class="node">
<title>ssd_cla_visits</title>
<polygon fill="none" stroke="black" points="1141.5,-1050 1141.5,-1171 1512.5,-1171 1512.5,-1050 1141.5,-1050"/>
<text text-anchor="middle" x="1327" y="-1155.8" font-family="Times,serif" font-size="14.00">ssd_cla_visits</text>
<polyline fill="none" stroke="black" points="1141.5,-1148 1512.5,-1148 "/>
<text text-anchor="start" x="1149.5" y="-1132.8" font-family="Times,serif" font-size="14.00">clav_cla_visit_id PK</text>
<text text-anchor="start" x="1149.5" y="-1117.8" font-family="Times,serif" font-size="14.00">clav_cla_id</text>
<text text-anchor="start" x="1149.5" y="-1102.8" font-family="Times,serif" font-size="14.00">clav_person_id → ssd_cla_episodes.clae_person_id</text>
<text text-anchor="start" x="1149.5" y="-1087.8" font-family="Times,serif" font-size="14.00">clav_cla_visit_date</text>
<text text-anchor="start" x="1149.5" y="-1072.8" font-family="Times,serif" font-size="14.00">clav_cla_visit_seen</text>
<text text-anchor="start" x="1149.5" y="-1057.8" font-family="Times,serif" font-size="14.00">clav_cla_visit_seen_alone</text>
</g>
<!-- ssd_cla_visits&#45;&gt;ssd_cla_episodes -->
<g id="edge12" class="edge">
<title>ssd_cla_visits&#45;&gt;ssd_cla_episodes</title>
<path fill="none" stroke="black" d="M1277.34,-1049.91C1241.42,-1006.8 1194.7,-950.74 1168.06,-918.77"/>
<polygon fill="black" stroke="black" points="1170.51,-916.25 1161.42,-910.81 1165.13,-920.73 1170.51,-916.25"/>
<text text-anchor="middle" x="1294.5" y="-997.8" font-family="Times,serif" font-size="14.00">clav_person_id</text>
</g>
<!-- ssd_cin_visits -->
<g id="node6" class="node">
<title>ssd_cin_visits</title>
<polygon fill="none" stroke="black" points="1556.5,-223.5 1556.5,-344.5 1929.5,-344.5 1929.5,-223.5 1556.5,-223.5"/>
<text text-anchor="middle" x="1743" y="-329.3" font-family="Times,serif" font-size="14.00">ssd_cin_visits</text>
<polyline fill="none" stroke="black" points="1556.5,-321.5 1929.5,-321.5 "/>
<text text-anchor="start" x="1564.5" y="-306.3" font-family="Times,serif" font-size="14.00">cinv_cin_visit_id PK</text>
<text text-anchor="start" x="1564.5" y="-291.3" font-family="Times,serif" font-size="14.00">cinv_person_id → ssd_cin_episodes.cine_person_id</text>
<text text-anchor="start" x="1564.5" y="-276.3" font-family="Times,serif" font-size="14.00">cinv_cin_visit_date</text>
<text text-anchor="start" x="1564.5" y="-261.3" font-family="Times,serif" font-size="14.00">cinv_cin_visit_seen</text>
<text text-anchor="start" x="1564.5" y="-246.3" font-family="Times,serif" font-size="14.00">cinv_cin_visit_seen_alone</text>
<text text-anchor="start" x="1564.5" y="-231.3" font-family="Times,serif" font-size="14.00">cinv_cin_visit_bedroom</text>
</g>
<!-- ssd_cin_visits&#45;&gt;ssd_cin_episodes -->
<g id="edge13" class="edge">
<title>ssd_cin_visits&#45;&gt;ssd_cin_episodes</title>
<path fill="none" stroke="black" d="M1743,-223.21C1743,-167.87 1743,-88.1 1743,-46.72"/>
<polygon fill="black" stroke="black" points="1746.5,-46.59 1743,-36.59 1739.5,-46.59 1746.5,-46.59"/>
<text text-anchor="middle" x="1796" y="-58.8" font-family="Times,serif" font-size="14.00">cinv_person_id</text>
</g>
<!-- ssd_cp_reviews -->
<g id="node7" class="node">
<title>ssd_cp_reviews</title>
<polygon fill="none" stroke="black" points="65.5,-1027.5 65.5,-1193.5 424.5,-1193.5 424.5,-1027.5 65.5,-1027.5"/>
<text text-anchor="middle" x="245" y="-1178.3" font-family="Times,serif" font-size="14.00">ssd_cp_reviews</text>
<polyline fill="none" stroke="black" points="65.5,-1170.5 424.5,-1170.5 "/>
<text text-anchor="start" x="73.5" y="-1155.3" font-family="Times,serif" font-size="14.00">cppr_cp_review_id PK</text>
<text text-anchor="start" x="73.5" y="-1140.3" font-family="Times,serif" font-size="14.00">cppr_person_id → ssd_cp_plans.cppl_person_id</text>
<text text-anchor="start" x="73.5" y="-1125.3" font-family="Times,serif" font-size="14.00">cppr_cp_plan_id → ssd_cp_plans.cppl_cp_plan_id</text>
<text text-anchor="start" x="73.5" y="-1110.3" font-family="Times,serif" font-size="14.00">cppr_cp_review_due</text>
<text text-anchor="start" x="73.5" y="-1095.3" font-family="Times,serif" font-size="14.00">cppr_cp_review_date</text>
<text text-anchor="start" x="73.5" y="-1080.3" font-family="Times,serif" font-size="14.00">cppr_cp_review_meeting_id</text>
<text text-anchor="start" x="73.5" y="-1065.3" font-family="Times,serif" font-size="14.00">cppr_cp_review_outcome_continue_cp</text>
<text text-anchor="start" x="73.5" y="-1050.3" font-family="Times,serif" font-size="14.00">cppr_cp_review_quorate</text>
<text text-anchor="start" x="73.5" y="-1035.3" font-family="Times,serif" font-size="14.00">cppr_cp_review_participation</text>
</g>
<!-- ssd_cp_plans -->
<g id="node8" class="node">
<title>ssd_cp_plans</title>
<polygon fill="none" stroke="black" points="186,-809.5 186,-975.5 578,-975.5 578,-809.5 186,-809.5"/>
<text text-anchor="middle" x="382" y="-960.3" font-family="Times,serif" font-size="14.00">ssd_cp_plans</text>
<polyline fill="none" stroke="black" points="186,-952.5 578,-952.5 "/>
<text text-anchor="start" x="194" y="-937.3" font-family="Times,serif" font-size="14.00">cppl_cp_plan_id PK</text>
<text text-anchor="start" x="194" y="-922.3" font-family="Times,serif" font-size="14.00">cppl_referral_id</text>
<text text-anchor="start" x="194" y="-907.3" font-family="Times,serif" font-size="14.00">cppl_icpc_id → ssd_initial_cp_conference.icpc_icpc_id</text>
<text text-anchor="start" x="194" y="-892.3" font-family="Times,serif" font-size="14.00">cppl_person_id → ssd_person.pers_person_id</text>
<text text-anchor="start" x="194" y="-877.3" font-family="Times,serif" font-size="14.00">cppl_cp_plan_start_date</text>
<text text-anchor="start" x="194" y="-862.3" font-family="Times,serif" font-size="14.00">cppl_cp_plan_end_date</text>
<text text-anchor="start" x="194" y="-847.3" font-family="Times,serif" font-size="14.00">cppl_cp_plan_initial_category</text>
<text text-anchor="start" x="194" y="-832.3" font-family="Times,serif" font-size="14.00">cppl_cp_plan_ola</text>
<text text-anchor="start" x="194" y="-817.3" font-family="Times,serif" font-size="14.00">cppl_cp_plan_latest_category</text>
</g>
<!-- ssd_cp_reviews&#45;&gt;ssd_cp_plans -->
<g id="edge14" class="edge">
<title>ssd_cp_reviews&#45;&gt;ssd_cp_plans</title>
<path fill="none" stroke="black" d="M347.64,-1027.35C352.2,-1021.45 356.37,-1015.33 360,-1009 364.19,-1001.68 367.61,-993.71 370.38,-985.5"/>
<polygon fill="black" stroke="black" points="373.78,-986.36 373.36,-975.77 367.09,-984.31 373.78,-986.36"/>
<text text-anchor="middle" x="421.5" y="-997.8" font-family="Times,serif" font-size="14.00">cppr_person_id</text>
</g>
<!-- ssd_cp_reviews&#45;&gt;ssd_cp_plans -->
<g id="edge15" class="edge">
<title>ssd_cp_reviews&#45;&gt;ssd_cp_plans</title>
<path fill="none" stroke="black" d="M232.89,-1027.37C233.99,-1015.74 236.73,-1004.26 242,-994 243.74,-990.61 245.66,-987.3 247.72,-984.08"/>
<polygon fill="black" stroke="black" points="250.67,-985.97 253.54,-975.77 244.94,-981.96 250.67,-985.97"/>
<text text-anchor="middle" x="299" y="-997.8" font-family="Times,serif" font-size="14.00">cppr_cp_plan_id</text>
</g>
<!-- ssd_cp_plans&#45;&gt;ssd_initial_cp_conference -->
<g id="edge16" class="edge">
<title>ssd_cp_plans&#45;&gt;ssd_initial_cp_conference</title>
<path fill="none" stroke="black" d="M517.81,-809.41C542.52,-794.48 568.74,-778.63 594.76,-762.9"/>
<polygon fill="black" stroke="black" points="596.82,-765.75 603.57,-757.58 593.2,-759.76 596.82,-765.75"/>
<text text-anchor="middle" x="605" y="-779.8" font-family="Times,serif" font-size="14.00">cppl_icpc_id</text>
</g>
<!-- ssd_cp_plans&#45;&gt;ssd_person -->
<g id="edge17" class="edge">
<title>ssd_cp_plans&#45;&gt;ssd_person</title>
<path fill="none" stroke="black" d="M370.07,-809.34C351.5,-661.9 324.36,-343.93 392,-88 395.89,-73.27 403.13,-57.98 409.93,-45.6"/>
<polygon fill="black" stroke="black" points="413.06,-47.17 414.98,-36.75 406.98,-43.7 413.06,-47.17"/>
<text text-anchor="middle" x="402" y="-501.8" font-family="Times,serif" font-size="14.00">cppl_person_id</text>
</g>
<!-- ssd_cp_visits -->
<g id="node9" class="node">
<title>ssd_cp_visits</title>
<polygon fill="none" stroke="black" points="443,-1042.5 443,-1178.5 793,-1178.5 793,-1042.5 443,-1042.5"/>
<text text-anchor="middle" x="618" y="-1163.3" font-family="Times,serif" font-size="14.00">ssd_cp_visits</text>
<polyline fill="none" stroke="black" points="443,-1155.5 793,-1155.5 "/>
<text text-anchor="start" x="451" y="-1140.3" font-family="Times,serif" font-size="14.00">cppv_cp_visit_id PK</text>
<text text-anchor="start" x="451" y="-1125.3" font-family="Times,serif" font-size="14.00">cppv_person_id → ssd_cp_plans.cppl_person_id</text>
<text text-anchor="start" x="451" y="-1110.3" font-family="Times,serif" font-size="14.00">cppv_cp_plan_id</text>
<text text-anchor="start" x="451" y="-1095.3" font-family="Times,serif" font-size="14.00">cppv_cp_visit_date</text>
<text text-anchor="start" x="451" y="-1080.3" font-family="Times,serif" font-size="14.00">cppv_cp_visit_seen</text>
<text text-anchor="start" x="451" y="-1065.3" font-family="Times,serif" font-size="14.00">cppv_cp_visit_seen_alone</text>
<text text-anchor="start" x="451" y="-1050.3" font-family="Times,serif" font-size="14.00">cppv_cp_visit_bedroom</text>
</g>
<!-- ssd_cp_visits&#45;&gt;ssd_cp_plans -->
<g id="edge18" class="edge">
<title>ssd_cp_visits&#45;&gt;ssd_cp_plans</title>
<path fill="none" stroke="black" d="M544.62,-1042.34C524.05,-1023.51 501.35,-1002.73 479.6,-982.83"/>
<polygon fill="black" stroke="black" points="481.69,-980 471.95,-975.83 476.97,-985.16 481.69,-980"/>
<text text-anchor="middle" x="563" y="-997.8" font-family="Times,serif" font-size="14.00">cppv_person_id</text>
</g>
</g>
</svg>
