<?xml version="1.0" encoding="UTF-8" standalone="no"?>
<!DOCTYPE svg PUBLIC "-//W3C//DTD SVG 1.1//EN"
 "http://www.w3.org/Graphics/SVG/1.1/DTD/svg11.dtd">
<!-- Generated by graphviz version 2.43.0 (0)
 -->
<!-- Title: G Pages: 1 -->
<svg width="1505pt" height="203pt"
 viewBox="0.00 0.00 1504.50 203.00" xmlns="http://www.w3.org/2000/svg" xmlns:xlink="http://www.w3.org/1999/xlink">
<g id="graph0" class="graph" transform="scale(1 1) rotate(0) translate(4 199)">
<title>G</title>
<polygon fill="white" stroke="transparent" points="-4,4 -4,-199 1500.5,-199 1500.5,4 -4,4"/>
<!-- ssd_cla_immunisations -->
<g id="node1" class="node">
<title>ssd_cla_immunisations</title>
<polygon fill="none" stroke="black" points="0,-103.5 0,-179.5 367,-179.5 367,-103.5 0,-103.5"/>
<text text-anchor="middle" x="183.5" y="-164.3" font-family="Times,serif" font-size="14.00">ssd_cla_immunisations</text>
<polyline fill="none" stroke="black" points="0,-156.5 367,-156.5 "/>
<text text-anchor="start" x="8" y="-141.3" font-family="Times,serif" font-size="14.00">clai_person_id → ssd_cla_episodes.clae_person_id</text>
<text text-anchor="start" x="8" y="-126.3" font-family="Times,serif" font-size="14.00">clai_immunisations_status</text>
<text text-anchor="start" x="8" y="-111.3" font-family="Times,serif" font-size="14.00">clai_immunisations_status_date</text>
</g>
<!-- ssd_cla_episodes -->
<g id="node5" class="node">
<title>ssd_cla_episodes</title>
<polygon fill="none" stroke="black" points="502,-0.5 502,-36.5 639,-36.5 639,-0.5 502,-0.5"/>
<text text-anchor="middle" x="570.5" y="-14.8" font-family="Times,serif" font-size="14.00">ssd_cla_episodes</text>
</g>
<!-- ssd_cla_immunisations&#45;&gt;ssd_cla_episodes -->
<g id="edge1" class="edge">
<title>ssd_cla_immunisations&#45;&gt;ssd_cla_episodes</title>
<path fill="none" stroke="black" d="M301.98,-103.46C369.28,-82.41 450.9,-56.89 506.36,-39.55"/>
<polygon fill="black" stroke="black" points="507.56,-42.85 516.06,-36.52 505.47,-36.17 507.56,-42.85"/>
<text text-anchor="middle" x="507" y="-58.8" font-family="Times,serif" font-size="14.00">clai_person_id</text>
</g>
<!-- ssd_cla_health -->
<g id="node2" class="node">
<title>ssd_cla_health</title>
<polygon fill="none" stroke="black" points="385,-88.5 385,-194.5 756,-194.5 756,-88.5 385,-88.5"/>
<text text-anchor="middle" x="570.5" y="-179.3" font-family="Times,serif" font-size="14.00">ssd_cla_health</text>
<polyline fill="none" stroke="black" points="385,-171.5 756,-171.5 "/>
<text text-anchor="start" x="393" y="-156.3" font-family="Times,serif" font-size="14.00">clah_health_check_id PK</text>
<text text-anchor="start" x="393" y="-141.3" font-family="Times,serif" font-size="14.00">clah_person_id → ssd_cla_episodes.clae_person_id</text>
<text text-anchor="start" x="393" y="-126.3" font-family="Times,serif" font-size="14.00">clah_health_check_type</text>
<text text-anchor="start" x="393" y="-111.3" font-family="Times,serif" font-size="14.00">clah_health_check_date</text>
<text text-anchor="start" x="393" y="-96.3" font-family="Times,serif" font-size="14.00">clah_health_check_status</text>
</g>
<!-- ssd_cla_health&#45;&gt;ssd_cla_episodes -->
<g id="edge2" class="edge">
<title>ssd_cla_health&#45;&gt;ssd_cla_episodes</title>
<path fill="none" stroke="black" d="M570.5,-88.48C570.5,-74.12 570.5,-59.1 570.5,-46.76"/>
<polygon fill="black" stroke="black" points="574,-46.68 570.5,-36.68 567,-46.68 574,-46.68"/>
<text text-anchor="middle" x="623.5" y="-58.8" font-family="Times,serif" font-size="14.00">clah_person_id</text>
</g>
<!-- ssd_cla_substance_misuse -->
<g id="node3" class="node">
<title>ssd_cla_substance_misuse</title>
<polygon fill="none" stroke="black" points="774.5,-88.5 774.5,-194.5 1144.5,-194.5 1144.5,-88.5 774.5,-88.5"/>
<text text-anchor="middle" x="959.5" y="-179.3" font-family="Times,serif" font-size="14.00">ssd_cla_substance_misuse</text>
<polyline fill="none" stroke="black" points="774.5,-171.5 1144.5,-171.5 "/>
<text text-anchor="start" x="782.5" y="-156.3" font-family="Times,serif" font-size="14.00">clas_substance_misuse_id PK</text>
<text text-anchor="start" x="782.5" y="-141.3" font-family="Times,serif" font-size="14.00">clas_person_id → ssd_cla_episodes.clae_person_id</text>
<text text-anchor="start" x="782.5" y="-126.3" font-family="Times,serif" font-size="14.00">clas_substance_misuse_date</text>
<text text-anchor="start" x="782.5" y="-111.3" font-family="Times,serif" font-size="14.00">clas_substance_misused</text>
<text text-anchor="start" x="782.5" y="-96.3" font-family="Times,serif" font-size="14.00">clas_intervention_received</text>
</g>
<!-- ssd_cla_substance_misuse&#45;&gt;ssd_cla_episodes -->
<g id="edge3" class="edge">
<title>ssd_cla_substance_misuse&#45;&gt;ssd_cla_episodes</title>
<path fill="none" stroke="black" d="M792.27,-88.48C736.68,-71.19 678.05,-52.95 635.05,-39.58"/>
<polygon fill="black" stroke="black" points="635.88,-36.17 625.29,-36.54 633.8,-42.86 635.88,-36.17"/>
<text text-anchor="middle" x="782.5" y="-58.8" font-family="Times,serif" font-size="14.00">clas_person_id</text>
</g>
<!-- ssd_disability -->
<g id="node4" class="node">
<title>ssd_disability</title>
<polygon fill="none" stroke="black" points="1162.5,-103.5 1162.5,-179.5 1496.5,-179.5 1496.5,-103.5 1162.5,-103.5"/>
<text text-anchor="middle" x="1329.5" y="-164.3" font-family="Times,serif" font-size="14.00">ssd_disability</text>
<polyline fill="none" stroke="black" points="1162.5,-156.5 1496.5,-156.5 "/>
<text text-anchor="start" x="1170.5" y="-141.3" font-family="Times,serif" font-size="14.00">disa_person_id → ssd_person.pers_person_id</text>
<text text-anchor="start" x="1170.5" y="-126.3" font-family="Times,serif" font-size="14.00">disa_table_id PK</text>
<text text-anchor="start" x="1170.5" y="-111.3" font-family="Times,serif" font-size="14.00">disa_disability_code</text>
</g>
<!-- ssd_person -->
<g id="node6" class="node">
<title>ssd_person</title>
<polygon fill="none" stroke="black" points="1281.5,-0.5 1281.5,-36.5 1377.5,-36.5 1377.5,-0.5 1281.5,-0.5"/>
<text text-anchor="middle" x="1329.5" y="-14.8" font-family="Times,serif" font-size="14.00">ssd_person</text>
</g>
<!-- ssd_disability&#45;&gt;ssd_person -->
<g id="edge4" class="edge">
<title>ssd_disability&#45;&gt;ssd_person</title>
<path fill="none" stroke="black" d="M1329.5,-103.21C1329.5,-84.98 1329.5,-63.44 1329.5,-46.78"/>
<polygon fill="black" stroke="black" points="1333,-46.61 1329.5,-36.61 1326,-46.61 1333,-46.61"/>
<text text-anchor="middle" x="1382.5" y="-58.8" font-family="Times,serif" font-size="14.00">disa_person_id</text>
</g>
</g>
</svg>
